solid OpenSCAD_Model
  facet normal -1 0 0
    outer loop
      vertex -23.75 -35.175 0
      vertex -23.75 -35.175 6
      vertex -23.75 35.175 0
    endloop
  endfacet
  facet normal -1 0 0
    outer loop
      vertex -23.75 35.175 0
      vertex -23.75 -35.175 6
      vertex -23.75 35.175 6
    endloop
  endfacet
  facet normal 0 -1 0
    outer loop
      vertex -23.75 -35.175 6
      vertex -23.75 -35.175 0
      vertex -23.6153 -35.175 0
    endloop
  endfacet
  facet normal 0 -1 0
    outer loop
      vertex -23.6153 -35.175 6
      vertex -23.75 -35.175 6
      vertex -23.6153 -35.175 0
    endloop
  endfacet
  facet normal 0 0 -1
    outer loop
      vertex -23.75 -35.175 0
      vertex -23.75 35.175 0
      vertex -23.6153 -35.175 0
    endloop
  endfacet
  facet normal 0 0 -1
    outer loop
      vertex -23.6153 -35.175 0
      vertex -23.75 35.175 0
      vertex -23.6153 35.175 0
    endloop
  endfacet
  facet normal 0 0 -1
    outer loop
      vertex -23.6153 35.175 0
      vertex -23.6153 36.1118 0
      vertex -22.6024 37.6879 0
    endloop
  endfacet
  facet normal 0 0 -1
    outer loop
      vertex -23.6153 35.175 0
      vertex -22.6024 37.6879 0
      vertex -23.6153 -35.175 0
    endloop
  endfacet
  facet normal 0 0 -1
    outer loop
      vertex -23.6153 -35.175 0
      vertex -22.6024 37.6879 0
      vertex -20.8982 38.4662 0
    endloop
  endfacet
  facet normal 0 0 -1
    outer loop
      vertex -23.6153 -35.175 0
      vertex -20.8982 38.4662 0
      vertex -20.425 38.3981 0
    endloop
  endfacet
  facet normal 0 0 -1
    outer loop
      vertex -20.425 38.3981 0
      vertex -20.425 38.5 0
      vertex 20.425 38.5 0
    endloop
  endfacet
  facet normal 0 0 -1
    outer loop
      vertex -20.425 38.3981 0
      vertex 20.425 38.5 0
      vertex -23.6153 -35.175 0
    endloop
  endfacet
  facet normal 0 0 -1
    outer loop
      vertex -23.6153 -35.175 0
      vertex 20.425 38.5 0
      vertex 20.425 38.3981 0
    endloop
  endfacet
  facet normal 0 0 -1
    outer loop
      vertex -23.6153 -35.175 0
      vertex 20.425 38.3981 0
      vertex 21.8063 38.1995 0
    endloop
  endfacet
  facet normal 0 0 -1
    outer loop
      vertex -23.6153 -35.175 0
      vertex 21.8063 38.1995 0
      vertex 23.2222 36.9726 0
    endloop
  endfacet
  facet normal 0 0 -1
    outer loop
      vertex -23.6153 -35.175 0
      vertex 23.2222 36.9726 0
      vertex 23.75 35.175 0
    endloop
  endfacet
  facet normal 0 0 -1
    outer loop
      vertex -23.6153 -35.175 0
      vertex 23.75 35.175 0
      vertex 23.75 -35.175 0
    endloop
  endfacet
  facet normal 0 0 -1
    outer loop
      vertex -23.6153 -35.175 0
      vertex 23.75 -35.175 0
      vertex 23.2222 -36.9726 0
    endloop
  endfacet
  facet normal 0 0 -1
    outer loop
      vertex -20.8982 -38.4662 0
      vertex -23.6153 -35.175 0
      vertex -20.425 -38.3981 0
    endloop
  endfacet
  facet normal 0 0 -1
    outer loop
      vertex 20.425 -38.5 0
      vertex -20.425 -38.5 0
      vertex -20.425 -38.3981 0
    endloop
  endfacet
  facet normal 0 0 -1
    outer loop
      vertex -23.6153 -35.175 0
      vertex 23.2222 -36.9726 0
      vertex 21.8063 -38.1995 0
    endloop
  endfacet
  facet normal 0 0 -1
    outer loop
      vertex -23.6153 -35.175 0
      vertex 21.8063 -38.1995 0
      vertex 20.425 -38.3981 0
    endloop
  endfacet
  facet normal 0 0 -1
    outer loop
      vertex -23.6153 -35.175 0
      vertex 20.425 -38.3981 0
      vertex 20.425 -38.5 0
    endloop
  endfacet
  facet normal 0 0 -1
    outer loop
      vertex -23.6153 -35.175 0
      vertex 20.425 -38.5 0
      vertex -20.425 -38.3981 0
    endloop
  endfacet
  facet normal 0 0 -1
    outer loop
      vertex -23.6153 -35.175 0
      vertex -20.8982 -38.4662 0
      vertex -22.6024 -37.6879 0
    endloop
  endfacet
  facet normal 0 0 -1
    outer loop
      vertex -23.6153 -35.175 0
      vertex -22.6024 -37.6879 0
      vertex -23.6153 -36.1118 0
    endloop
  endfacet
  facet normal 0 1 0
    outer loop
      vertex -23.75 35.175 0
      vertex -23.75 35.175 6
      vertex -23.6153 35.175 0
    endloop
  endfacet
  facet normal 0 1 0
    outer loop
      vertex -23.6153 35.175 0
      vertex -23.75 35.175 6
      vertex -23.6153 35.175 6
    endloop
  endfacet
  facet normal 0 0 1
    outer loop
      vertex 23.75 -35.175 6
      vertex 23.75 35.175 6
      vertex 19 33.1733 6
    endloop
  endfacet
  facet normal 0 0 1
    outer loop
      vertex -23.75 35.175 6
      vertex -23.75 -35.175 6
      vertex -23.6153 -35.175 6
    endloop
  endfacet
  facet normal 0 0 1
    outer loop
      vertex -22.6024 -37.6879 6
      vertex -23.75 35.175 6
      vertex -23.6153 -35.175 6
    endloop
  endfacet
  facet normal 0 0 1
    outer loop
      vertex -23.6153 -36.1118 6
      vertex -22.6024 -37.6879 6
      vertex -23.6153 -35.175 6
    endloop
  endfacet
  facet normal 0 0 1
    outer loop
      vertex -20.8396 -35.84 6
      vertex -20.8982 -38.4662 6
      vertex -20.8396 -36.7498 6
    endloop
  endfacet
  facet normal 0 0 1
    outer loop
      vertex -21 1.34 6
      vertex -20.8396 1.34 6
      vertex -23.75 35.175 6
    endloop
  endfacet
  facet normal 0 0 1
    outer loop
      vertex -20.425 -38.5 6
      vertex -18.34 -38.5 6
      vertex -20.425 -38.3981 6
    endloop
  endfacet
  facet normal 0 0 1
    outer loop
      vertex -23.6153 36.1118 6
      vertex -20.8982 38.4662 6
      vertex -22.6024 37.6879 6
    endloop
  endfacet
  facet normal 0 0 1
    outer loop
      vertex -20.8396 -35.84 6
      vertex -21 -35.84 6
      vertex -20.8982 -38.4662 6
    endloop
  endfacet
  facet normal 0 0 1
    outer loop
      vertex -20.425 -38.3981 6
      vertex -18.34 -38.5 6
      vertex -19.67 -38.1436 6
    endloop
  endfacet
  facet normal 0 0 1
    outer loop
      vertex -20.8982 -38.4662 6
      vertex -20.425 -38.3981 6
      vertex -20.8396 -36.7498 6
    endloop
  endfacet
  facet normal 0 0 1
    outer loop
      vertex -23.6153 36.1118 6
      vertex -16.34 35.8333 6
      vertex -20.425 38.3981 6
    endloop
  endfacet
  facet normal 0 0 1
    outer loop
      vertex -22.6024 -37.6879 6
      vertex -21 -35.84 6
      vertex -23.75 35.175 6
    endloop
  endfacet
  facet normal 0 0 1
    outer loop
      vertex -22.6024 -37.6879 6
      vertex -20.8982 -38.4662 6
      vertex -21 -35.84 6
    endloop
  endfacet
  facet normal 0 0 1
    outer loop
      vertex -20.8396 2.24977 6
      vertex -19.67 3.64363 6
      vertex -23.75 35.175 6
    endloop
  endfacet
  facet normal 0 0 1
    outer loop
      vertex -19.67 3.64363 6
      vertex -19 3.76177 6
      vertex -23.75 35.175 6
    endloop
  endfacet
  facet normal 0 0 1
    outer loop
      vertex -20.8396 1.34 6
      vertex -20.8396 2.24977 6
      vertex -23.75 35.175 6
    endloop
  endfacet
  facet normal 0 0 1
    outer loop
      vertex -19 33.1733 6
      vertex -18.8396 33.1733 6
      vertex -23.75 35.175 6
    endloop
  endfacet
  facet normal 0 0 1
    outer loop
      vertex -19 3.76177 6
      vertex -19 33.1733 6
      vertex -23.75 35.175 6
    endloop
  endfacet
  facet normal 0 0 1
    outer loop
      vertex -18.8396 33.1733 6
      vertex -18.8396 34.0831 6
      vertex -23.75 35.175 6
    endloop
  endfacet
  facet normal 0 0 1
    outer loop
      vertex 16.34 35.7115 6
      vertex 16.8019 35.7929 6
      vertex 16.34 35.8333 6
    endloop
  endfacet
  facet normal 0 0 1
    outer loop
      vertex 16.34 35.8333 6
      vertex 23.2222 36.9726 6
      vertex -16.34 35.8333 6
    endloop
  endfacet
  facet normal 0 0 1
    outer loop
      vertex 16.8019 35.7929 6
      vertex 23.2222 36.9726 6
      vertex 16.34 35.8333 6
    endloop
  endfacet
  facet normal 0 0 1
    outer loop
      vertex 18.3777 34.8831 6
      vertex 23.75 35.175 6
      vertex 16.8019 35.7929 6
    endloop
  endfacet
  facet normal 0 0 1
    outer loop
      vertex 19 33.1733 6
      vertex 23.75 35.175 6
      vertex 18.3777 34.8831 6
    endloop
  endfacet
  facet normal 0 0 1
    outer loop
      vertex 19 3.84522 6
      vertex 20.3777 3.04981 6
      vertex 19 33.1733 6
    endloop
  endfacet
  facet normal 0 0 1
    outer loop
      vertex 20.3777 3.04981 6
      vertex 21 1.34 6
      vertex 19 33.1733 6
    endloop
  endfacet
  facet normal 0 0 1
    outer loop
      vertex 21 -35.84 6
      vertex 21.8063 -38.1995 6
      vertex 21 1.34 6
    endloop
  endfacet
  facet normal 0 0 1
    outer loop
      vertex 23.75 -35.175 6
      vertex 19 33.1733 6
      vertex 21 1.34 6
    endloop
  endfacet
  facet normal 0 0 1
    outer loop
      vertex 18.34 -38.3781 6
      vertex 18.34 -38.5 6
      vertex 18.8019 -38.4596 6
    endloop
  endfacet
  facet normal 0 0 1
    outer loop
      vertex 18.8019 -38.4596 6
      vertex 20.425 -38.5 6
      vertex 20.3777 -37.5498 6
    endloop
  endfacet
  facet normal 0 0 1
    outer loop
      vertex 20.425 38.3981 6
      vertex 20.425 38.5 6
      vertex -16.34 35.8333 6
    endloop
  endfacet
  facet normal 0 0 1
    outer loop
      vertex 20.425 -38.3981 6
      vertex 21.8063 -38.1995 6
      vertex 21 -35.84 6
    endloop
  endfacet
  facet normal 0 0 1
    outer loop
      vertex 18.34 -38.5 6
      vertex 20.425 -38.5 6
      vertex 18.8019 -38.4596 6
    endloop
  endfacet
  facet normal 0 0 1
    outer loop
      vertex 20.3777 -37.5498 6
      vertex 20.425 -38.3981 6
      vertex 21 -35.84 6
    endloop
  endfacet
  facet normal 0 0 1
    outer loop
      vertex 20.3777 -37.5498 6
      vertex 20.425 -38.5 6
      vertex 20.425 -38.3981 6
    endloop
  endfacet
  facet normal 0 0 1
    outer loop
      vertex 21.8063 -38.1995 6
      vertex 23.2222 -36.9726 6
      vertex 21 1.34 6
    endloop
  endfacet
  facet normal 0 0 1
    outer loop
      vertex -23.6153 36.1118 6
      vertex -20.425 38.3981 6
      vertex -20.8982 38.4662 6
    endloop
  endfacet
  facet normal 0 0 1
    outer loop
      vertex 23.2222 -36.9726 6
      vertex 23.75 -35.175 6
      vertex 21 1.34 6
    endloop
  endfacet
  facet normal 0 0 1
    outer loop
      vertex 23.75 35.175 6
      vertex 23.2222 36.9726 6
      vertex 16.8019 35.7929 6
    endloop
  endfacet
  facet normal 0 0 1
    outer loop
      vertex 23.2222 36.9726 6
      vertex 21.8063 38.1995 6
      vertex -16.34 35.8333 6
    endloop
  endfacet
  facet normal 0 0 1
    outer loop
      vertex 21.8063 38.1995 6
      vertex 20.425 38.3981 6
      vertex -16.34 35.8333 6
    endloop
  endfacet
  facet normal 0 0 1
    outer loop
      vertex 20.425 38.5 6
      vertex -20.425 38.5 6
      vertex -16.34 35.8333 6
    endloop
  endfacet
  facet normal 0 0 1
    outer loop
      vertex -16.34 35.8333 6
      vertex -20.425 38.5 6
      vertex -20.425 38.3981 6
    endloop
  endfacet
  facet normal 0 0 1
    outer loop
      vertex -18.8396 34.0831 6
      vertex -23.6153 35.175 6
      vertex -23.75 35.175 6
    endloop
  endfacet
  facet normal 0 0 1
    outer loop
      vertex -18.8396 34.0831 6
      vertex -17.67 35.477 6
      vertex -23.6153 35.175 6
    endloop
  endfacet
  facet normal 0 0 1
    outer loop
      vertex -18.34 -38.3781 6
      vertex -19.67 -38.1436 6
      vertex -18.34 -38.5 6
    endloop
  endfacet
  facet normal 0 0 1
    outer loop
      vertex -19.67 -38.1436 6
      vertex -20.8396 -36.7498 6
      vertex -20.425 -38.3981 6
    endloop
  endfacet
  facet normal 0 0 1
    outer loop
      vertex -21 -35.84 6
      vertex -21 1.34 6
      vertex -23.75 35.175 6
    endloop
  endfacet
  facet normal 0 0 1
    outer loop
      vertex -23.6153 36.1118 6
      vertex -16.34 35.7115 6
      vertex -16.34 35.8333 6
    endloop
  endfacet
  facet normal 0 0 1
    outer loop
      vertex -23.6153 36.1118 6
      vertex -17.67 35.477 6
      vertex -16.34 35.7115 6
    endloop
  endfacet
  facet normal 0 0 1
    outer loop
      vertex -23.6153 36.1118 6
      vertex -23.6153 35.175 6
      vertex -17.67 35.477 6
    endloop
  endfacet
  facet normal -1 0 0
    outer loop
      vertex -23.6153 -36.1118 0
      vertex -23.6153 -36.1118 6
      vertex -23.6153 -35.175 0
    endloop
  endfacet
  facet normal -1 0 0
    outer loop
      vertex -23.6153 -35.175 0
      vertex -23.6153 -36.1118 6
      vertex -23.6153 -35.175 6
    endloop
  endfacet
  facet normal -0.841253 -0.540641 0
    outer loop
      vertex -23.6153 -36.1118 0
      vertex -22.6024 -37.6879 0
      vertex -23.6153 -36.1118 6
    endloop
  endfacet
  facet normal -0.841253 -0.540641 0
    outer loop
      vertex -23.6153 -36.1118 6
      vertex -22.6024 -37.6879 0
      vertex -22.6024 -37.6879 6
    endloop
  endfacet
  facet normal -0.415415 -0.909632 0
    outer loop
      vertex -22.6024 -37.6879 6
      vertex -22.6024 -37.6879 0
      vertex -20.8982 -38.4662 0
    endloop
  endfacet
  facet normal -0.415415 -0.909632 0
    outer loop
      vertex -20.8982 -38.4662 6
      vertex -22.6024 -37.6879 6
      vertex -20.8982 -38.4662 0
    endloop
  endfacet
  facet normal 0.142315 -0.989821 0
    outer loop
      vertex -20.8982 -38.4662 6
      vertex -20.8982 -38.4662 0
      vertex -20.425 -38.3981 0
    endloop
  endfacet
  facet normal 0.142315 -0.989821 0
    outer loop
      vertex -20.425 -38.3981 6
      vertex -20.8982 -38.4662 6
      vertex -20.425 -38.3981 0
    endloop
  endfacet
  facet normal -1 0 0
    outer loop
      vertex -20.425 -38.5 0
      vertex -20.425 -38.5 6
      vertex -20.425 -38.3981 0
    endloop
  endfacet
  facet normal -1 0 0
    outer loop
      vertex -20.425 -38.3981 0
      vertex -20.425 -38.5 6
      vertex -20.425 -38.3981 6
    endloop
  endfacet
  facet normal 0 -1 0
    outer loop
      vertex -20.425 -38.5 6
      vertex -20.425 -38.5 0
      vertex 20.425 -38.5 0
    endloop
  endfacet
  facet normal 0 -1 0
    outer loop
      vertex -18.34 -38.5 6
      vertex -20.425 -38.5 6
      vertex 20.425 -38.5 0
    endloop
  endfacet
  facet normal 0 -1 0
    outer loop
      vertex 18.34 -38.5 6
      vertex -18.34 -38.5 6
      vertex 20.425 -38.5 0
    endloop
  endfacet
  facet normal 0 -1 0
    outer loop
      vertex 20.425 -38.5 6
      vertex 18.34 -38.5 6
      vertex 20.425 -38.5 0
    endloop
  endfacet
  facet normal 0 -1 0
    outer loop
      vertex 18.34 -38.5 79
      vertex -18.34 -38.5 6
      vertex 18.34 -38.5 6
    endloop
  endfacet
  facet normal 0 -1 0
    outer loop
      vertex -18.34 -38.5 79
      vertex -18.34 -38.5 6
      vertex 18.34 -38.5 79
    endloop
  endfacet
  facet normal 1 0 0
    outer loop
      vertex 20.425 -38.5 6
      vertex 20.425 -38.5 0
      vertex 20.425 -38.3981 0
    endloop
  endfacet
  facet normal 1 0 0
    outer loop
      vertex 20.425 -38.3981 6
      vertex 20.425 -38.5 6
      vertex 20.425 -38.3981 0
    endloop
  endfacet
  facet normal 0.142315 -0.989821 0
    outer loop
      vertex 20.425 -38.3981 6
      vertex 20.425 -38.3981 0
      vertex 21.8063 -38.1995 0
    endloop
  endfacet
  facet normal 0.142315 -0.989821 0
    outer loop
      vertex 21.8063 -38.1995 6
      vertex 20.425 -38.3981 6
      vertex 21.8063 -38.1995 0
    endloop
  endfacet
  facet normal 0.654861 -0.75575 0
    outer loop
      vertex 21.8063 -38.1995 6
      vertex 21.8063 -38.1995 0
      vertex 23.2222 -36.9726 0
    endloop
  endfacet
  facet normal 0.654861 -0.75575 0
    outer loop
      vertex 23.2222 -36.9726 6
      vertex 21.8063 -38.1995 6
      vertex 23.2222 -36.9726 0
    endloop
  endfacet
  facet normal 0.959493 -0.281733 0
    outer loop
      vertex 23.2222 -36.9726 6
      vertex 23.2222 -36.9726 0
      vertex 23.75 -35.175 0
    endloop
  endfacet
  facet normal 0.959493 -0.281733 0
    outer loop
      vertex 23.75 -35.175 6
      vertex 23.2222 -36.9726 6
      vertex 23.75 -35.175 0
    endloop
  endfacet
  facet normal 1 0 0
    outer loop
      vertex 23.75 -35.175 6
      vertex 23.75 -35.175 0
      vertex 23.75 35.175 0
    endloop
  endfacet
  facet normal 1 0 0
    outer loop
      vertex 23.75 35.175 6
      vertex 23.75 -35.175 6
      vertex 23.75 35.175 0
    endloop
  endfacet
  facet normal 0.959493 0.281733 0
    outer loop
      vertex 23.75 35.175 0
      vertex 23.2222 36.9726 0
      vertex 23.2222 36.9726 6
    endloop
  endfacet
  facet normal 0.959493 0.281733 0
    outer loop
      vertex 23.75 35.175 6
      vertex 23.75 35.175 0
      vertex 23.2222 36.9726 6
    endloop
  endfacet
  facet normal 0.654861 0.75575 0
    outer loop
      vertex 21.8063 38.1995 0
      vertex 21.8063 38.1995 6
      vertex 23.2222 36.9726 0
    endloop
  endfacet
  facet normal 0.654861 0.75575 0
    outer loop
      vertex 23.2222 36.9726 0
      vertex 21.8063 38.1995 6
      vertex 23.2222 36.9726 6
    endloop
  endfacet
  facet normal 0.142315 0.989821 0
    outer loop
      vertex 20.425 38.3981 0
      vertex 20.425 38.3981 6
      vertex 21.8063 38.1995 0
    endloop
  endfacet
  facet normal 0.142315 0.989821 0
    outer loop
      vertex 21.8063 38.1995 0
      vertex 20.425 38.3981 6
      vertex 21.8063 38.1995 6
    endloop
  endfacet
  facet normal 1 0 0
    outer loop
      vertex 20.425 38.3981 6
      vertex 20.425 38.3981 0
      vertex 20.425 38.5 0
    endloop
  endfacet
  facet normal 1 0 0
    outer loop
      vertex 20.425 38.5 6
      vertex 20.425 38.3981 6
      vertex 20.425 38.5 0
    endloop
  endfacet
  facet normal 0 1 0
    outer loop
      vertex -20.425 38.5 0
      vertex -20.425 38.5 6
      vertex 20.425 38.5 0
    endloop
  endfacet
  facet normal 0 1 0
    outer loop
      vertex 20.425 38.5 0
      vertex -20.425 38.5 6
      vertex 20.425 38.5 6
    endloop
  endfacet
  facet normal -1 0 0
    outer loop
      vertex -20.425 38.3981 0
      vertex -20.425 38.3981 6
      vertex -20.425 38.5 0
    endloop
  endfacet
  facet normal -1 0 0
    outer loop
      vertex -20.425 38.5 0
      vertex -20.425 38.3981 6
      vertex -20.425 38.5 6
    endloop
  endfacet
  facet normal 0.142315 0.989821 0
    outer loop
      vertex -20.8982 38.4662 0
      vertex -20.8982 38.4662 6
      vertex -20.425 38.3981 0
    endloop
  endfacet
  facet normal 0.142315 0.989821 0
    outer loop
      vertex -20.425 38.3981 0
      vertex -20.8982 38.4662 6
      vertex -20.425 38.3981 6
    endloop
  endfacet
  facet normal -0.415415 0.909632 0
    outer loop
      vertex -22.6024 37.6879 0
      vertex -22.6024 37.6879 6
      vertex -20.8982 38.4662 0
    endloop
  endfacet
  facet normal -0.415415 0.909632 0
    outer loop
      vertex -20.8982 38.4662 0
      vertex -22.6024 37.6879 6
      vertex -20.8982 38.4662 6
    endloop
  endfacet
  facet normal -0.841253 0.540641 0
    outer loop
      vertex -23.6153 36.1118 0
      vertex -23.6153 36.1118 6
      vertex -22.6024 37.6879 0
    endloop
  endfacet
  facet normal -0.841253 0.540641 0
    outer loop
      vertex -22.6024 37.6879 0
      vertex -23.6153 36.1118 6
      vertex -22.6024 37.6879 6
    endloop
  endfacet
  facet normal -1 0 0
    outer loop
      vertex -23.6153 35.175 0
      vertex -23.6153 35.175 6
      vertex -23.6153 36.1118 0
    endloop
  endfacet
  facet normal -1 0 0
    outer loop
      vertex -23.6153 36.1118 0
      vertex -23.6153 35.175 6
      vertex -23.6153 36.1118 6
    endloop
  endfacet
  facet normal 1 0 0
    outer loop
      vertex 18.34 -38.5 79
      vertex 18.34 -38.5 6
      vertex 18.34 -38.3781 6
    endloop
  endfacet
  facet normal 1 0 0
    outer loop
      vertex 18.34 -38.3781 79
      vertex 18.34 -38.5 79
      vertex 18.34 -38.3781 6
    endloop
  endfacet
  facet normal -0.173648 -0.984808 0
    outer loop
      vertex 18.34 -38.3781 79
      vertex 18.34 -38.3781 6
      vertex 18.8019 -38.4596 6
    endloop
  endfacet
  facet normal -0.173648 -0.984808 0
    outer loop
      vertex 18.8019 -38.4596 79
      vertex 18.34 -38.3781 79
      vertex 18.8019 -38.4596 6
    endloop
  endfacet
  facet normal 0.5 -0.866025 0
    outer loop
      vertex 18.8019 -38.4596 79
      vertex 18.8019 -38.4596 6
      vertex 20.3777 -37.5498 6
    endloop
  endfacet
  facet normal 0.5 -0.866025 0
    outer loop
      vertex 20.3777 -37.5498 79
      vertex 18.8019 -38.4596 79
      vertex 20.3777 -37.5498 6
    endloop
  endfacet
  facet normal 0.939693 -0.34202 0
    outer loop
      vertex 20.3777 -37.5498 79
      vertex 20.3777 -37.5498 6
      vertex 21 -35.84 6
    endloop
  endfacet
  facet normal 0.939693 -0.34202 0
    outer loop
      vertex 21 -35.84 79
      vertex 20.3777 -37.5498 79
      vertex 21 -35.84 6
    endloop
  endfacet
  facet normal 1 0 0
    outer loop
      vertex 21 -35.84 79
      vertex 21 -35.84 6
      vertex 21 1.34 6
    endloop
  endfacet
  facet normal 1 0 0
    outer loop
      vertex 21 1.34 79
      vertex 21 -35.84 79
      vertex 21 1.34 6
    endloop
  endfacet
  facet normal 0.939693 0.34202 0
    outer loop
      vertex 21 1.34 6
      vertex 20.3777 3.04981 6
      vertex 20.3777 3.04981 79
    endloop
  endfacet
  facet normal 0.939693 0.34202 0
    outer loop
      vertex 21 1.34 79
      vertex 21 1.34 6
      vertex 20.3777 3.04981 79
    endloop
  endfacet
  facet normal 0.5 0.866025 0
    outer loop
      vertex 18.8019 3.95959 23.8848
      vertex 18.8019 3.95959 79
      vertex 19 3.84522 22
    endloop
  endfacet
  facet normal 0.5 0.866025 0
    outer loop
      vertex 19 3.84522 22
      vertex 18.8019 3.95959 79
      vertex 20.3777 3.04981 79
    endloop
  endfacet
  facet normal 0.5 0.866025 0
    outer loop
      vertex 19 3.84522 22
      vertex 20.3777 3.04981 79
      vertex 20.3777 3.04981 6
    endloop
  endfacet
  facet normal 0.5 0.866025 0
    outer loop
      vertex 19 3.84522 22
      vertex 20.3777 3.04981 6
      vertex 19 3.84522 6
    endloop
  endfacet
  facet normal -1 0 0
    outer loop
      vertex 19 2 79
      vertex 19 2 40.9
      vertex 19 -36.5 79
    endloop
  endfacet
  facet normal -1 0 0
    outer loop
      vertex 19 -36.5 79
      vertex 19 2 40.9
      vertex 19 1 40.9
    endloop
  endfacet
  facet normal -1 0 0
    outer loop
      vertex 19 -36.5 79
      vertex 19 1 40.9
      vertex 19 1 22
    endloop
  endfacet
  facet normal -1 0 0
    outer loop
      vertex 19 1 22
      vertex 19 3.84522 6
      vertex 19 -36.5 79
    endloop
  endfacet
  facet normal -1 0 0
    outer loop
      vertex 19 2 22
      vertex 19 3.84522 22
      vertex 19 3.84522 6
    endloop
  endfacet
  facet normal -1 0 0
    outer loop
      vertex 19 2 22
      vertex 19 3.84522 6
      vertex 19 1 22
    endloop
  endfacet
  facet normal -1 0 0
    outer loop
      vertex 19 3.84522 6
      vertex 19 33.1733 6
      vertex 19 33.1733 3
    endloop
  endfacet
  facet normal -1 0 0
    outer loop
      vertex 19 3.84522 6
      vertex 19 33.1733 3
      vertex 19 -35.1 3
    endloop
  endfacet
  facet normal -1 0 0
    outer loop
      vertex 19 3.84522 6
      vertex 19 -35.1 3
      vertex 19 -35.1 18.9
    endloop
  endfacet
  facet normal -1 0 0
    outer loop
      vertex 19 3.84522 6
      vertex 19 -35.1 18.9
      vertex 19 -36.5 79
    endloop
  endfacet
  facet normal -1 0 0
    outer loop
      vertex 19 -36.5 79
      vertex 19 -36.1 18.9
      vertex 19 -36.1 3
    endloop
  endfacet
  facet normal -1 0 0
    outer loop
      vertex 19 -36.5 79
      vertex 19 -36.1 3
      vertex 19 -36.5 3
    endloop
  endfacet
  facet normal -1 0 0
    outer loop
      vertex 19 -36.1 18.9
      vertex 19 -36.5 79
      vertex 19 -35.1 18.9
    endloop
  endfacet
  facet normal -0.939693 -0.34202 0
    outer loop
      vertex 19 33.1733 6
      vertex 18.3777 34.8831 6
      vertex 19 33.1733 3
    endloop
  endfacet
  facet normal -0.939693 -0.34202 0
    outer loop
      vertex 19 33.1733 3
      vertex 18.3777 34.8831 6
      vertex 18.3777 34.8831 3
    endloop
  endfacet
  facet normal -0.5 -0.866025 0
    outer loop
      vertex 18.3777 34.8831 3
      vertex 18.3777 34.8831 6
      vertex 16.8019 35.7929 6
    endloop
  endfacet
  facet normal -0.5 -0.866025 0
    outer loop
      vertex 16.8019 35.7929 3
      vertex 18.3777 34.8831 3
      vertex 16.8019 35.7929 6
    endloop
  endfacet
  facet normal 0.173648 -0.984808 0
    outer loop
      vertex 16.8019 35.7929 3
      vertex 16.8019 35.7929 6
      vertex 16.34 35.7115 6
    endloop
  endfacet
  facet normal 0.173648 -0.984808 0
    outer loop
      vertex 16.34 35.7115 3
      vertex 16.8019 35.7929 3
      vertex 16.34 35.7115 6
    endloop
  endfacet
  facet normal -1 0 0
    outer loop
      vertex 16.34 35.8333 6
      vertex 16.34 35.8333 3
      vertex 16.34 35.7115 6
    endloop
  endfacet
  facet normal -1 0 0
    outer loop
      vertex 16.34 35.7115 6
      vertex 16.34 35.8333 3
      vertex 16.34 35.7115 3
    endloop
  endfacet
  facet normal 0 -1 0
    outer loop
      vertex 16.34 35.8333 3
      vertex 16.34 35.8333 6
      vertex -16.34 35.8333 6
    endloop
  endfacet
  facet normal 0 -1 0
    outer loop
      vertex -16.34 35.8333 3
      vertex 16.34 35.8333 3
      vertex -16.34 35.8333 6
    endloop
  endfacet
  facet normal 1 0 0
    outer loop
      vertex -16.34 35.8333 3
      vertex -16.34 35.8333 6
      vertex -16.34 35.7115 6
    endloop
  endfacet
  facet normal 1 0 0
    outer loop
      vertex -16.34 35.7115 3
      vertex -16.34 35.8333 3
      vertex -16.34 35.7115 6
    endloop
  endfacet
  facet normal 0.173648 -0.984808 0
    outer loop
      vertex -16.34 35.7115 3
      vertex -16.34 35.7115 6
      vertex -17.67 35.477 6
    endloop
  endfacet
  facet normal 0.173648 -0.984808 0
    outer loop
      vertex -17.67 35.477 3
      vertex -16.34 35.7115 3
      vertex -17.67 35.477 6
    endloop
  endfacet
  facet normal 0.766045 -0.642787 0
    outer loop
      vertex -17.67 35.477 3
      vertex -17.67 35.477 6
      vertex -18.8396 34.0831 6
    endloop
  endfacet
  facet normal 0.766045 -0.642787 0
    outer loop
      vertex -18.8396 34.0831 3
      vertex -17.67 35.477 3
      vertex -18.8396 34.0831 6
    endloop
  endfacet
  facet normal 1 0 0
    outer loop
      vertex -18.8396 34.0831 3
      vertex -18.8396 34.0831 6
      vertex -18.8396 33.1733 6
    endloop
  endfacet
  facet normal 1 0 0
    outer loop
      vertex -18.8396 33.1733 3
      vertex -18.8396 34.0831 3
      vertex -18.8396 33.1733 6
    endloop
  endfacet
  facet normal 0 -1 0
    outer loop
      vertex -18.8396 33.1733 3
      vertex -18.8396 33.1733 6
      vertex -19 33.1733 6
    endloop
  endfacet
  facet normal 0 -1 0
    outer loop
      vertex -19 33.1733 3
      vertex -18.8396 33.1733 3
      vertex -19 33.1733 6
    endloop
  endfacet
  facet normal 1 0 0
    outer loop
      vertex -19 3.76177 22
      vertex -19 -36.1 18.9
      vertex -19 -35.1 18.9
    endloop
  endfacet
  facet normal 1 0 0
    outer loop
      vertex -19 2 22
      vertex -19 2 79
      vertex -19 -36.1 18.9
    endloop
  endfacet
  facet normal 1 0 0
    outer loop
      vertex -19 -36.1 3
      vertex -19 -36.1 18.9
      vertex -19 -36.5 79
    endloop
  endfacet
  facet normal 1 0 0
    outer loop
      vertex -19 3.76177 6
      vertex -19 3.76177 22
      vertex -19 -35.1 18.9
    endloop
  endfacet
  facet normal 1 0 0
    outer loop
      vertex -19 -35.1 3
      vertex -19 3.76177 6
      vertex -19 -35.1 18.9
    endloop
  endfacet
  facet normal 1 0 0
    outer loop
      vertex -19 -35.1 3
      vertex -19 33.1733 3
      vertex -19 3.76177 6
    endloop
  endfacet
  facet normal 1 0 0
    outer loop
      vertex -19 3.76177 22
      vertex -19 2 22
      vertex -19 -36.1 18.9
    endloop
  endfacet
  facet normal 1 0 0
    outer loop
      vertex -19 2 79
      vertex -19 -36.5 79
      vertex -19 -36.1 18.9
    endloop
  endfacet
  facet normal 1 0 0
    outer loop
      vertex -19 -36.5 79
      vertex -19 -36.5 3
      vertex -19 -36.1 3
    endloop
  endfacet
  facet normal 1 0 0
    outer loop
      vertex -19 33.1733 6
      vertex -19 3.76177 6
      vertex -19 33.1733 3
    endloop
  endfacet
  facet normal -0.173648 0.984808 0
    outer loop
      vertex -19.67 3.64363 6
      vertex -19.67 3.64363 79
      vertex -19 3.76177 6
    endloop
  endfacet
  facet normal -0.173648 0.984808 0
    outer loop
      vertex -19 3.76177 22
      vertex -19.67 3.64363 79
      vertex -18.34 3.87814 79
    endloop
  endfacet
  facet normal -0.173648 0.984808 0
    outer loop
      vertex -18.5848 3.83498 25.9503
      vertex -18.34 3.87814 79
      vertex -18.34 3.87814 26.7038
    endloop
  endfacet
  facet normal -0.173648 0.984808 0
    outer loop
      vertex -19 3.76177 6
      vertex -19.67 3.64363 79
      vertex -19 3.76177 22
    endloop
  endfacet
  facet normal -0.173648 0.984808 0
    outer loop
      vertex -19 3.76177 22
      vertex -18.34 3.87814 79
      vertex -18.5848 3.83498 25.9503
    endloop
  endfacet
  facet normal -0.766045 0.642787 0
    outer loop
      vertex -20.8396 2.24977 6
      vertex -20.8396 2.24977 79
      vertex -19.67 3.64363 6
    endloop
  endfacet
  facet normal -0.766045 0.642787 0
    outer loop
      vertex -19.67 3.64363 6
      vertex -20.8396 2.24977 79
      vertex -19.67 3.64363 79
    endloop
  endfacet
  facet normal -1 0 0
    outer loop
      vertex -20.8396 1.34 6
      vertex -20.8396 1.34 79
      vertex -20.8396 2.24977 6
    endloop
  endfacet
  facet normal -1 0 0
    outer loop
      vertex -20.8396 2.24977 6
      vertex -20.8396 1.34 79
      vertex -20.8396 2.24977 79
    endloop
  endfacet
  facet normal 0 1 0
    outer loop
      vertex -21 1.34 6
      vertex -21 1.34 79
      vertex -20.8396 1.34 6
    endloop
  endfacet
  facet normal 0 1 0
    outer loop
      vertex -20.8396 1.34 6
      vertex -21 1.34 79
      vertex -20.8396 1.34 79
    endloop
  endfacet
  facet normal -1 0 0
    outer loop
      vertex -21 -35.84 6
      vertex -21 -35.84 79
      vertex -21 1.34 6
    endloop
  endfacet
  facet normal -1 0 0
    outer loop
      vertex -21 1.34 6
      vertex -21 -35.84 79
      vertex -21 1.34 79
    endloop
  endfacet
  facet normal 0 -1 0
    outer loop
      vertex -21 -35.84 79
      vertex -21 -35.84 6
      vertex -20.8396 -35.84 6
    endloop
  endfacet
  facet normal 0 -1 0
    outer loop
      vertex -20.8396 -35.84 79
      vertex -21 -35.84 79
      vertex -20.8396 -35.84 6
    endloop
  endfacet
  facet normal -1 0 0
    outer loop
      vertex -20.8396 -36.7498 6
      vertex -20.8396 -36.7498 79
      vertex -20.8396 -35.84 6
    endloop
  endfacet
  facet normal -1 0 0
    outer loop
      vertex -20.8396 -35.84 6
      vertex -20.8396 -36.7498 79
      vertex -20.8396 -35.84 79
    endloop
  endfacet
  facet normal -0.766045 -0.642787 0
    outer loop
      vertex -20.8396 -36.7498 6
      vertex -19.67 -38.1436 6
      vertex -20.8396 -36.7498 79
    endloop
  endfacet
  facet normal -0.766045 -0.642787 0
    outer loop
      vertex -20.8396 -36.7498 79
      vertex -19.67 -38.1436 6
      vertex -19.67 -38.1436 79
    endloop
  endfacet
  facet normal -0.173648 -0.984808 0
    outer loop
      vertex -19.67 -38.1436 79
      vertex -19.67 -38.1436 6
      vertex -18.34 -38.3781 6
    endloop
  endfacet
  facet normal -0.173648 -0.984808 0
    outer loop
      vertex -18.34 -38.3781 79
      vertex -19.67 -38.1436 79
      vertex -18.34 -38.3781 6
    endloop
  endfacet
  facet normal -1 0 0
    outer loop
      vertex -18.34 -38.5 6
      vertex -18.34 -38.5 79
      vertex -18.34 -38.3781 6
    endloop
  endfacet
  facet normal -1 0 0
    outer loop
      vertex -18.34 -38.3781 6
      vertex -18.34 -38.5 79
      vertex -18.34 -38.3781 79
    endloop
  endfacet
  facet normal 0 0 1
    outer loop
      vertex -21 1.34 79
      vertex -21 -35.84 79
      vertex -20.8396 -35.84 79
    endloop
  endfacet
  facet normal 0 0 1
    outer loop
      vertex -19.67 -38.1436 79
      vertex -21 1.34 79
      vertex -20.8396 -35.84 79
    endloop
  endfacet
  facet normal 0 0 1
    outer loop
      vertex -20.8396 -36.7498 79
      vertex -19.67 -38.1436 79
      vertex -20.8396 -35.84 79
    endloop
  endfacet
  facet normal 0 0 1
    outer loop
      vertex -19 2 79
      vertex 19 2 79
      vertex 20.3777 3.04981 79
    endloop
  endfacet
  facet normal 0 0 1
    outer loop
      vertex -18.34 -38.5 79
      vertex 18.34 -38.5 79
      vertex -18.34 -38.3781 79
    endloop
  endfacet
  facet normal 0 0 1
    outer loop
      vertex 19 2 79
      vertex 20.3777 -37.5498 79
      vertex 21 -35.84 79
    endloop
  endfacet
  facet normal 0 0 1
    outer loop
      vertex 19 -36.5 79
      vertex 18.34 -38.3781 79
      vertex 18.8019 -38.4596 79
    endloop
  endfacet
  facet normal 0 0 1
    outer loop
      vertex 20.3777 3.04981 79
      vertex 18.8019 3.95959 79
      vertex 18.34 3.87814 79
    endloop
  endfacet
  facet normal 0 0 1
    outer loop
      vertex -20.8396 2.24977 79
      vertex -18.34 3.87814 79
      vertex -19.67 3.64363 79
    endloop
  endfacet
  facet normal 0 0 1
    outer loop
      vertex 19 -36.5 79
      vertex -19 -36.5 79
      vertex -18.34 -38.3781 79
    endloop
  endfacet
  facet normal 0 0 1
    outer loop
      vertex 18.34 4 79
      vertex -18.34 4 79
      vertex -18.34 3.87814 79
    endloop
  endfacet
  facet normal 0 0 1
    outer loop
      vertex 19 2 79
      vertex 19 -36.5 79
      vertex 20.3777 -37.5498 79
    endloop
  endfacet
  facet normal 0 0 1
    outer loop
      vertex 19 2 79
      vertex 21 -35.84 79
      vertex 21 1.34 79
    endloop
  endfacet
  facet normal 0 0 1
    outer loop
      vertex -19.67 -38.1436 79
      vertex -19 -36.5 79
      vertex -21 1.34 79
    endloop
  endfacet
  facet normal 0 0 1
    outer loop
      vertex -19.67 -38.1436 79
      vertex -18.34 -38.3781 79
      vertex -19 -36.5 79
    endloop
  endfacet
  facet normal 0 0 1
    outer loop
      vertex 19 -36.5 79
      vertex -18.34 -38.3781 79
      vertex 18.34 -38.3781 79
    endloop
  endfacet
  facet normal 0 0 1
    outer loop
      vertex 18.34 4 79
      vertex -18.34 3.87814 79
      vertex -19 2 79
    endloop
  endfacet
  facet normal 0 0 1
    outer loop
      vertex 21 1.34 79
      vertex 20.3777 3.04981 79
      vertex 19 2 79
    endloop
  endfacet
  facet normal 0 0 1
    outer loop
      vertex 18.8019 -38.4596 79
      vertex 20.3777 -37.5498 79
      vertex 19 -36.5 79
    endloop
  endfacet
  facet normal 0 0 1
    outer loop
      vertex 18.34 -38.3781 79
      vertex -18.34 -38.3781 79
      vertex 18.34 -38.5 79
    endloop
  endfacet
  facet normal 0 0 1
    outer loop
      vertex -20.8396 2.24977 79
      vertex -19 2 79
      vertex -18.34 3.87814 79
    endloop
  endfacet
  facet normal 0 0 1
    outer loop
      vertex -19 2 79
      vertex 18.34 3.87814 79
      vertex 18.34 4 79
    endloop
  endfacet
  facet normal 0 0 1
    outer loop
      vertex -19 2 79
      vertex 20.3777 3.04981 79
      vertex 18.34 3.87814 79
    endloop
  endfacet
  facet normal 0 0 1
    outer loop
      vertex -20.8396 2.24977 79
      vertex -20.8396 1.34 79
      vertex -19 2 79
    endloop
  endfacet
  facet normal 0 0 1
    outer loop
      vertex -19 -36.5 79
      vertex -20.8396 1.34 79
      vertex -21 1.34 79
    endloop
  endfacet
  facet normal 0 0 1
    outer loop
      vertex -19 -36.5 79
      vertex -19 2 79
      vertex -20.8396 1.34 79
    endloop
  endfacet
  facet normal -0.994522 -2.321e-17 -0.104529
    outer loop
      vertex 18.8019 3.95959 23.8848
      vertex 19 3.84522 22
      vertex 18.5848 3.92131 25.9503
    endloop
  endfacet
  facet normal -0.994522 -2.321e-17 -0.104529
    outer loop
      vertex 18.5848 3.92131 25.9503
      vertex 19 3.84522 22
      vertex 19 2 22
    endloop
  endfacet
  facet normal -0.994522 -2.321e-17 -0.104529
    outer loop
      vertex 18.5848 3.92131 25.9503
      vertex 19 2 22
      vertex 19 1 22
    endloop
  endfacet
  facet normal -0.994522 -2.321e-17 -0.104529
    outer loop
      vertex 18.5848 3.92131 25.9503
      vertex 19 1 22
      vertex 18.5848 1 25.9503
    endloop
  endfacet
  facet normal -0.173648 0.984808 0
    outer loop
      vertex 18.34 3.87814 26.7038
      vertex 18.34 3.87814 79
      vertex 18.5848 3.92131 25.9503
    endloop
  endfacet
  facet normal -0.173648 0.984808 0
    outer loop
      vertex 18.5848 3.92131 25.9503
      vertex 18.34 3.87814 79
      vertex 18.8019 3.95959 79
    endloop
  endfacet
  facet normal -0.173648 0.984808 0
    outer loop
      vertex 18.5848 3.92131 25.9503
      vertex 18.8019 3.95959 79
      vertex 18.8019 3.95959 23.8848
    endloop
  endfacet
  facet normal 0 1 0
    outer loop
      vertex 19 -36.5 79
      vertex 19 -36.5 3
      vertex -19 -36.5 79
    endloop
  endfacet
  facet normal 0 1 0
    outer loop
      vertex -19 -36.5 79
      vertex 19 -36.5 3
      vertex -19 -36.5 3
    endloop
  endfacet
  facet normal 0 0 1
    outer loop
      vertex 19 -36.5 3
      vertex 19 -36.1 3
      vertex -19 -36.1 3
    endloop
  endfacet
  facet normal 0 0 1
    outer loop
      vertex -19 -36.5 3
      vertex 19 -36.5 3
      vertex -19 -36.1 3
    endloop
  endfacet
  facet normal 0 -1 2.22045e-16
    outer loop
      vertex -19 -36.1 18.9
      vertex -19 -36.1 3
      vertex 19 -36.1 3
    endloop
  endfacet
  facet normal 0 -1 2.22045e-16
    outer loop
      vertex 19 -36.1 18.9
      vertex -19 -36.1 18.9
      vertex 19 -36.1 3
    endloop
  endfacet
  facet normal 0 2.22045e-16 1
    outer loop
      vertex -19 -35.1 18.9
      vertex -19 -36.1 18.9
      vertex 19 -36.1 18.9
    endloop
  endfacet
  facet normal 0 2.22045e-16 1
    outer loop
      vertex 19 -35.1 18.9
      vertex -19 -35.1 18.9
      vertex 19 -36.1 18.9
    endloop
  endfacet
  facet normal 0 1 -2.22045e-16
    outer loop
      vertex -19 -35.1 3
      vertex -19 -35.1 18.9
      vertex 19 -35.1 3
    endloop
  endfacet
  facet normal 0 1 -2.22045e-16
    outer loop
      vertex 19 -35.1 3
      vertex -19 -35.1 18.9
      vertex 19 -35.1 18.9
    endloop
  endfacet
  facet normal 0 0 1
    outer loop
      vertex 16.34 35.7115 3
      vertex -16.34 35.8333 3
      vertex 19 -35.1 3
    endloop
  endfacet
  facet normal 0 0 1
    outer loop
      vertex 18.3777 34.8831 3
      vertex 19 -35.1 3
      vertex 19 33.1733 3
    endloop
  endfacet
  facet normal 0 0 1
    outer loop
      vertex 18.3777 34.8831 3
      vertex 16.8019 35.7929 3
      vertex 19 -35.1 3
    endloop
  endfacet
  facet normal 0 0 1
    outer loop
      vertex 16.8019 35.7929 3
      vertex 16.34 35.7115 3
      vertex 19 -35.1 3
    endloop
  endfacet
  facet normal 0 0 1
    outer loop
      vertex -16.34 35.7115 3
      vertex -17.67 35.477 3
      vertex 19 -35.1 3
    endloop
  endfacet
  facet normal 0 0 1
    outer loop
      vertex 16.34 35.8333 3
      vertex -16.34 35.8333 3
      vertex 16.34 35.7115 3
    endloop
  endfacet
  facet normal 0 0 1
    outer loop
      vertex -16.34 35.8333 3
      vertex -16.34 35.7115 3
      vertex 19 -35.1 3
    endloop
  endfacet
  facet normal 0 0 1
    outer loop
      vertex -18.8396 33.1733 3
      vertex -19 33.1733 3
      vertex 19 -35.1 3
    endloop
  endfacet
  facet normal 0 0 1
    outer loop
      vertex -17.67 35.477 3
      vertex -18.8396 34.0831 3
      vertex 19 -35.1 3
    endloop
  endfacet
  facet normal 0 0 1
    outer loop
      vertex -18.8396 34.0831 3
      vertex -18.8396 33.1733 3
      vertex 19 -35.1 3
    endloop
  endfacet
  facet normal 0 0 1
    outer loop
      vertex -19 33.1733 3
      vertex -19 -35.1 3
      vertex 19 -35.1 3
    endloop
  endfacet
  facet normal -2.22045e-16 -1 -2.22045e-16
    outer loop
      vertex -18.5848 1 25.9503
      vertex -18.9 1 40.9
      vertex -18.9 1 22.9514
    endloop
  endfacet
  facet normal -2.22045e-16 -1 -2.22045e-16
    outer loop
      vertex -17.3574 1 29.728
      vertex -18.9 1 40.9
      vertex -18.5848 1 25.9503
    endloop
  endfacet
  facet normal -2.22045e-16 -1 -2.22045e-16
    outer loop
      vertex -15.3713 1 33.1679
      vertex -18.9 1 40.9
      vertex -17.3574 1 29.728
    endloop
  endfacet
  facet normal -2.22045e-16 -1 -2.22045e-16
    outer loop
      vertex -12.7135 1 36.1198
      vertex -18.9 1 40.9
      vertex -15.3713 1 33.1679
    endloop
  endfacet
  facet normal -2.22045e-16 -1 -2.22045e-16
    outer loop
      vertex -9.5 1 38.4545
      vertex -18.9 1 40.9
      vertex -12.7135 1 36.1198
    endloop
  endfacet
  facet normal -2.22045e-16 -1 -2.22045e-16
    outer loop
      vertex -5.87132 1 40.0701
      vertex -18.9 1 40.9
      vertex -9.5 1 38.4545
    endloop
  endfacet
  facet normal -2.22045e-16 -1 -2.22045e-16
    outer loop
      vertex -1.98604 1 40.8959
      vertex -18.9 1 40.9
      vertex -5.87132 1 40.0701
    endloop
  endfacet
  facet normal -2.22045e-16 -1 -2.22045e-16
    outer loop
      vertex 19 1 40.9
      vertex -18.9 1 40.9
      vertex -1.98604 1 40.8959
    endloop
  endfacet
  facet normal -2.22045e-16 -1 -2.22045e-16
    outer loop
      vertex 19 1 40.9
      vertex -1.98604 1 40.8959
      vertex 1.98604 1 40.8959
    endloop
  endfacet
  facet normal -2.22045e-16 -1 -2.22045e-16
    outer loop
      vertex 9.5 1 38.4545
      vertex 12.7135 1 36.1198
      vertex 19 1 40.9
    endloop
  endfacet
  facet normal -2.22045e-16 -1 -2.22045e-16
    outer loop
      vertex 15.3713 1 33.1679
      vertex 19 1 40.9
      vertex 12.7135 1 36.1198
    endloop
  endfacet
  facet normal -2.22045e-16 -1 -2.22045e-16
    outer loop
      vertex 17.3574 1 29.728
      vertex 19 1 40.9
      vertex 15.3713 1 33.1679
    endloop
  endfacet
  facet normal -2.22045e-16 -1 -2.22045e-16
    outer loop
      vertex 18.5848 1 25.9503
      vertex 19 1 40.9
      vertex 17.3574 1 29.728
    endloop
  endfacet
  facet normal -2.22045e-16 -1 -2.22045e-16
    outer loop
      vertex 19 1 22
      vertex 19 1 40.9
      vertex 18.5848 1 25.9503
    endloop
  endfacet
  facet normal -2.22045e-16 -1 -2.22045e-16
    outer loop
      vertex 1.98604 1 40.8959
      vertex 5.87132 1 40.0701
      vertex 19 1 40.9
    endloop
  endfacet
  facet normal -2.22045e-16 -1 -2.22045e-16
    outer loop
      vertex 5.87132 1 40.0701
      vertex 9.5 1 38.4545
      vertex 19 1 40.9
    endloop
  endfacet
  facet normal -4.93038e-32 -2.22045e-16 1
    outer loop
      vertex -18.9 2 40.9
      vertex -18.9 1 40.9
      vertex 19 1 40.9
    endloop
  endfacet
  facet normal -4.93038e-32 -2.22045e-16 1
    outer loop
      vertex 19 2 40.9
      vertex -18.9 2 40.9
      vertex 19 1 40.9
    endloop
  endfacet
  facet normal 0 -1 0
    outer loop
      vertex 19 2 79
      vertex -18.9 2 40.9
      vertex 19 2 40.9
    endloop
  endfacet
  facet normal 0 -1 0
    outer loop
      vertex -19 2 79
      vertex -18.9 2 40.9
      vertex 19 2 79
    endloop
  endfacet
  facet normal 0 -1 0
    outer loop
      vertex -18.9 2 22.9514
      vertex -18.9 2 40.9
      vertex -19 2 79
    endloop
  endfacet
  facet normal 0 -1 0
    outer loop
      vertex -19 2 22
      vertex -18.9 2 22.9514
      vertex -19 2 79
    endloop
  endfacet
  facet normal 0.994522 -2.321e-17 -0.104529
    outer loop
      vertex -19 3.76177 22
      vertex -18.5848 3.83498 25.9503
      vertex -18.5848 1 25.9503
    endloop
  endfacet
  facet normal 0.994522 -2.321e-17 -0.104529
    outer loop
      vertex -18.9 2 22.9514
      vertex -19 3.76177 22
      vertex -18.5848 1 25.9503
    endloop
  endfacet
  facet normal 0.994522 -2.321e-17 -0.104529
    outer loop
      vertex -18.9 1 22.9514
      vertex -18.9 2 22.9514
      vertex -18.5848 1 25.9503
    endloop
  endfacet
  facet normal 0.994522 -2.321e-17 -0.104529
    outer loop
      vertex -18.9 2 22.9514
      vertex -19 2 22
      vertex -19 3.76177 22
    endloop
  endfacet
  facet normal 0.951057 -6.86155e-17 -0.309017
    outer loop
      vertex -18.5848 3.83498 25.9503
      vertex -18.34 3.87814 26.7038
      vertex -17.3574 4 29.728
    endloop
  endfacet
  facet normal 0.951057 -6.86155e-17 -0.309017
    outer loop
      vertex -17.3574 4 29.728
      vertex -18.34 3.87814 26.7038
      vertex -18.34 4 26.7038
    endloop
  endfacet
  facet normal 0.951057 -6.86155e-17 -0.309017
    outer loop
      vertex -18.5848 3.83498 25.9503
      vertex -17.3574 4 29.728
      vertex -17.3574 1 29.728
    endloop
  endfacet
  facet normal 0.951057 -6.86155e-17 -0.309017
    outer loop
      vertex -18.5848 3.83498 25.9503
      vertex -17.3574 1 29.728
      vertex -18.5848 1 25.9503
    endloop
  endfacet
  facet normal -1 0 0
    outer loop
      vertex -18.34 3.87814 26.7038
      vertex -18.34 3.87814 79
      vertex -18.34 4 26.7038
    endloop
  endfacet
  facet normal -1 0 0
    outer loop
      vertex -18.34 4 26.7038
      vertex -18.34 3.87814 79
      vertex -18.34 4 79
    endloop
  endfacet
  facet normal 0 1 0
    outer loop
      vertex -18.34 4 26.7038
      vertex -18.34 4 79
      vertex -17.3574 4 29.728
    endloop
  endfacet
  facet normal 0 1 0
    outer loop
      vertex -15.3713 4 33.1679
      vertex 18.34 4 79
      vertex -12.7135 4 36.1198
    endloop
  endfacet
  facet normal 0 1 0
    outer loop
      vertex -15.3713 4 33.1679
      vertex -18.34 4 79
      vertex 18.34 4 79
    endloop
  endfacet
  facet normal 0 1 0
    outer loop
      vertex 18.34 4 79
      vertex 18.34 4 26.7038
      vertex 17.3574 4 29.728
    endloop
  endfacet
  facet normal 0 1 0
    outer loop
      vertex 18.34 4 79
      vertex 17.3574 4 29.728
      vertex 15.3713 4 33.1679
    endloop
  endfacet
  facet normal 0 1 0
    outer loop
      vertex 18.34 4 79
      vertex 15.3713 4 33.1679
      vertex 12.7135 4 36.1198
    endloop
  endfacet
  facet normal 0 1 0
    outer loop
      vertex 18.34 4 79
      vertex 12.7135 4 36.1198
      vertex 9.5 4 38.4545
    endloop
  endfacet
  facet normal 0 1 0
    outer loop
      vertex 18.34 4 79
      vertex 9.5 4 38.4545
      vertex 5.87132 4 40.0701
    endloop
  endfacet
  facet normal 0 1 0
    outer loop
      vertex 18.34 4 79
      vertex 5.87132 4 40.0701
      vertex 1.98604 4 40.8959
    endloop
  endfacet
  facet normal 0 1 0
    outer loop
      vertex 18.34 4 79
      vertex 1.98604 4 40.8959
      vertex -1.98604 4 40.8959
    endloop
  endfacet
  facet normal 0 1 0
    outer loop
      vertex 18.34 4 79
      vertex -1.98604 4 40.8959
      vertex -5.87132 4 40.0701
    endloop
  endfacet
  facet normal 0 1 0
    outer loop
      vertex 18.34 4 79
      vertex -5.87132 4 40.0701
      vertex -9.5 4 38.4545
    endloop
  endfacet
  facet normal 0 1 0
    outer loop
      vertex -17.3574 4 29.728
      vertex -18.34 4 79
      vertex -15.3713 4 33.1679
    endloop
  endfacet
  facet normal 0 1 0
    outer loop
      vertex -12.7135 4 36.1198
      vertex 18.34 4 79
      vertex -9.5 4 38.4545
    endloop
  endfacet
  facet normal 1 0 0
    outer loop
      vertex 18.34 3.87814 79
      vertex 18.34 3.87814 26.7038
      vertex 18.34 4 26.7038
    endloop
  endfacet
  facet normal 1 0 0
    outer loop
      vertex 18.34 4 79
      vertex 18.34 3.87814 79
      vertex 18.34 4 26.7038
    endloop
  endfacet
  facet normal -0.951057 -6.86155e-17 -0.309017
    outer loop
      vertex 18.34 4 26.7038
      vertex 18.34 3.87814 26.7038
      vertex 17.3574 4 29.728
    endloop
  endfacet
  facet normal -0.951057 -6.86155e-17 -0.309017
    outer loop
      vertex 18.5848 1 25.9503
      vertex 18.34 3.87814 26.7038
      vertex 18.5848 3.92131 25.9503
    endloop
  endfacet
  facet normal -0.951057 -6.86155e-17 -0.309017
    outer loop
      vertex 17.3574 4 29.728
      vertex 18.34 3.87814 26.7038
      vertex 18.5848 1 25.9503
    endloop
  endfacet
  facet normal -0.951057 -6.86155e-17 -0.309017
    outer loop
      vertex 17.3574 4 29.728
      vertex 18.5848 1 25.9503
      vertex 17.3574 1 29.728
    endloop
  endfacet
  facet normal -0.866025 -1.11022e-16 -0.5
    outer loop
      vertex 17.3574 4 29.728
      vertex 17.3574 1 29.728
      vertex 15.3713 4 33.1679
    endloop
  endfacet
  facet normal -0.866025 -1.11022e-16 -0.5
    outer loop
      vertex 15.3713 4 33.1679
      vertex 17.3574 1 29.728
      vertex 15.3713 1 33.1679
    endloop
  endfacet
  facet normal -0.743145 -1.48577e-16 -0.669131
    outer loop
      vertex 15.3713 4 33.1679
      vertex 15.3713 1 33.1679
      vertex 12.7135 4 36.1198
    endloop
  endfacet
  facet normal -0.743145 -1.48577e-16 -0.669131
    outer loop
      vertex 12.7135 4 36.1198
      vertex 15.3713 1 33.1679
      vertex 12.7135 1 36.1198
    endloop
  endfacet
  facet normal -0.587785 -1.79638e-16 -0.809017
    outer loop
      vertex 12.7135 4 36.1198
      vertex 12.7135 1 36.1198
      vertex 9.5 4 38.4545
    endloop
  endfacet
  facet normal -0.587785 -1.79638e-16 -0.809017
    outer loop
      vertex 9.5 4 38.4545
      vertex 12.7135 1 36.1198
      vertex 9.5 1 38.4545
    endloop
  endfacet
  facet normal -0.406737 -2.02848e-16 -0.913545
    outer loop
      vertex 9.5 4 38.4545
      vertex 9.5 1 38.4545
      vertex 5.87132 4 40.0701
    endloop
  endfacet
  facet normal -0.406737 -2.02848e-16 -0.913545
    outer loop
      vertex 5.87132 4 40.0701
      vertex 9.5 1 38.4545
      vertex 5.87132 1 40.0701
    endloop
  endfacet
  facet normal -0.207912 -2.17192e-16 -0.978148
    outer loop
      vertex 5.87132 4 40.0701
      vertex 5.87132 1 40.0701
      vertex 1.98604 4 40.8959
    endloop
  endfacet
  facet normal -0.207912 -2.17192e-16 -0.978148
    outer loop
      vertex 1.98604 4 40.8959
      vertex 5.87132 1 40.0701
      vertex 1.98604 1 40.8959
    endloop
  endfacet
  facet normal 0 -2.22045e-16 -1
    outer loop
      vertex 1.98604 4 40.8959
      vertex 1.98604 1 40.8959
      vertex -1.98604 4 40.8959
    endloop
  endfacet
  facet normal 0 -2.22045e-16 -1
    outer loop
      vertex -1.98604 4 40.8959
      vertex 1.98604 1 40.8959
      vertex -1.98604 1 40.8959
    endloop
  endfacet
  facet normal 0.207912 -2.17192e-16 -0.978148
    outer loop
      vertex -1.98604 4 40.8959
      vertex -1.98604 1 40.8959
      vertex -5.87132 4 40.0701
    endloop
  endfacet
  facet normal 0.207912 -2.17192e-16 -0.978148
    outer loop
      vertex -5.87132 4 40.0701
      vertex -1.98604 1 40.8959
      vertex -5.87132 1 40.0701
    endloop
  endfacet
  facet normal 0.406737 -2.02848e-16 -0.913545
    outer loop
      vertex -5.87132 4 40.0701
      vertex -5.87132 1 40.0701
      vertex -9.5 4 38.4545
    endloop
  endfacet
  facet normal 0.406737 -2.02848e-16 -0.913545
    outer loop
      vertex -9.5 4 38.4545
      vertex -5.87132 1 40.0701
      vertex -9.5 1 38.4545
    endloop
  endfacet
  facet normal 0.587785 -1.79638e-16 -0.809017
    outer loop
      vertex -9.5 4 38.4545
      vertex -9.5 1 38.4545
      vertex -12.7135 4 36.1198
    endloop
  endfacet
  facet normal 0.587785 -1.79638e-16 -0.809017
    outer loop
      vertex -12.7135 4 36.1198
      vertex -9.5 1 38.4545
      vertex -12.7135 1 36.1198
    endloop
  endfacet
  facet normal 0.743145 -1.48577e-16 -0.669131
    outer loop
      vertex -15.3713 4 33.1679
      vertex -12.7135 4 36.1198
      vertex -12.7135 1 36.1198
    endloop
  endfacet
  facet normal 0.743145 -1.48577e-16 -0.669131
    outer loop
      vertex -15.3713 1 33.1679
      vertex -15.3713 4 33.1679
      vertex -12.7135 1 36.1198
    endloop
  endfacet
  facet normal 0.866025 -1.11022e-16 -0.5
    outer loop
      vertex -17.3574 4 29.728
      vertex -15.3713 4 33.1679
      vertex -15.3713 1 33.1679
    endloop
  endfacet
  facet normal 0.866025 -1.11022e-16 -0.5
    outer loop
      vertex -17.3574 1 29.728
      vertex -17.3574 4 29.728
      vertex -15.3713 1 33.1679
    endloop
  endfacet
  facet normal -1 2.22045e-16 4.93038e-32
    outer loop
      vertex -18.9 1 40.9
      vertex -18.9 2 40.9
      vertex -18.9 1 22.9514
    endloop
  endfacet
  facet normal -1 2.22045e-16 4.93038e-32
    outer loop
      vertex -18.9 1 22.9514
      vertex -18.9 2 40.9
      vertex -18.9 2 22.9514
    endloop
  endfacet
endsolid OpenSCAD_Model
