solid OpenSCAD_Model
  facet normal -1 -0 -0
    outer loop
      vertex -23.4375 -34.2188 0
      vertex -23.4375 -34.2188 8
      vertex -23.4375 34.2188 0
    endloop
  endfacet
  facet normal -1 0 0
    outer loop
      vertex -23.4375 34.2188 0
      vertex -23.4375 -34.2188 8
      vertex -23.4375 34.2188 8
    endloop
  endfacet
  facet normal 0 -1 0
    outer loop
      vertex -23.4375 -34.2188 8
      vertex -23.4375 -34.2188 0
      vertex -23.3046 -34.2188 0
    endloop
  endfacet
  facet normal 0 -1 0
    outer loop
      vertex -23.3046 -34.2188 8
      vertex -23.4375 -34.2188 8
      vertex -23.3046 -34.2188 0
    endloop
  endfacet
  facet normal -0 -0 -1
    outer loop
      vertex -23.4375 -34.2188 0
      vertex -23.4375 34.2188 0
      vertex -23.3046 -34.2188 0
    endloop
  endfacet
  facet normal 0 0 -1
    outer loop
      vertex -23.3046 -34.2188 0
      vertex -23.4375 34.2188 0
      vertex -23.3046 34.2188 0
    endloop
  endfacet
  facet normal 0 -0 -1
    outer loop
      vertex -23.3046 34.2188 0
      vertex -23.3046 35.1432 0
      vertex -22.305 36.6986 0
    endloop
  endfacet
  facet normal -0 0 -1
    outer loop
      vertex -23.3046 34.2188 0
      vertex -22.305 36.6986 0
      vertex -23.3046 -34.2188 0
    endloop
  endfacet
  facet normal 0 0 -1
    outer loop
      vertex -23.3046 -34.2188 0
      vertex -22.305 36.6986 0
      vertex -20.6232 37.4666 0
    endloop
  endfacet
  facet normal 0 0 -1
    outer loop
      vertex -23.3046 -34.2188 0
      vertex -20.6232 37.4666 0
      vertex -20.1562 37.3995 0
    endloop
  endfacet
  facet normal 0 -0 -1
    outer loop
      vertex -20.1562 37.3995 0
      vertex -20.1562 37.5 0
      vertex 20.1562 37.5 0
    endloop
  endfacet
  facet normal -0 0 -1
    outer loop
      vertex -20.1562 37.3995 0
      vertex 20.1562 37.5 0
      vertex -23.3046 -34.2188 0
    endloop
  endfacet
  facet normal 0 0 -1
    outer loop
      vertex -23.3046 -34.2188 0
      vertex 20.1562 37.5 0
      vertex 20.1562 37.3995 0
    endloop
  endfacet
  facet normal 0 0 -1
    outer loop
      vertex -23.3046 -34.2188 0
      vertex 20.1562 37.3995 0
      vertex 21.5193 37.2035 0
    endloop
  endfacet
  facet normal 0 0 -1
    outer loop
      vertex -23.3046 -34.2188 0
      vertex 21.5193 37.2035 0
      vertex 22.9166 35.9927 0
    endloop
  endfacet
  facet normal 0 0 -1
    outer loop
      vertex -23.3046 -34.2188 0
      vertex 22.9166 35.9927 0
      vertex 23.4375 34.2188 0
    endloop
  endfacet
  facet normal -0 0 -1
    outer loop
      vertex -23.3046 -34.2188 0
      vertex 23.4375 34.2188 0
      vertex 23.4375 -34.2188 0
    endloop
  endfacet
  facet normal 0 0 -1
    outer loop
      vertex -23.3046 -34.2188 0
      vertex 23.4375 -34.2188 0
      vertex 22.9166 -35.9927 0
    endloop
  endfacet
  facet normal 0 -0 -1
    outer loop
      vertex -20.6232 -37.4666 0
      vertex -23.3046 -34.2188 0
      vertex -20.1562 -37.3995 0
    endloop
  endfacet
  facet normal 0 0 -1
    outer loop
      vertex 20.1562 -37.5 0
      vertex -20.1562 -37.5 0
      vertex -20.1562 -37.3995 0
    endloop
  endfacet
  facet normal 0 0 -1
    outer loop
      vertex -23.3046 -34.2188 0
      vertex 22.9166 -35.9927 0
      vertex 21.5193 -37.2035 0
    endloop
  endfacet
  facet normal 0 0 -1
    outer loop
      vertex -23.3046 -34.2188 0
      vertex 21.5193 -37.2035 0
      vertex 20.1562 -37.3995 0
    endloop
  endfacet
  facet normal 0 0 -1
    outer loop
      vertex -23.3046 -34.2188 0
      vertex 20.1562 -37.3995 0
      vertex 20.1562 -37.5 0
    endloop
  endfacet
  facet normal 0 0 -1
    outer loop
      vertex -23.3046 -34.2188 0
      vertex 20.1562 -37.5 0
      vertex -20.1562 -37.3995 0
    endloop
  endfacet
  facet normal 0 0 -1
    outer loop
      vertex -23.3046 -34.2188 0
      vertex -20.6232 -37.4666 0
      vertex -22.305 -36.6986 0
    endloop
  endfacet
  facet normal 0 0 -1
    outer loop
      vertex -23.3046 -34.2188 0
      vertex -22.305 -36.6986 0
      vertex -23.3046 -35.1432 0
    endloop
  endfacet
  facet normal 0 1 0
    outer loop
      vertex -23.4375 34.2188 0
      vertex -23.4375 34.2188 8
      vertex -23.3046 34.2188 0
    endloop
  endfacet
  facet normal 0 1 0
    outer loop
      vertex -23.3046 34.2188 0
      vertex -23.4375 34.2188 8
      vertex -23.3046 34.2188 8
    endloop
  endfacet
  facet normal 0 0 1
    outer loop
      vertex -23.3046 35.1432 8
      vertex -20.1562 37.3995 8
      vertex -20.6232 37.4666 8
    endloop
  endfacet
  facet normal 0 -0 1
    outer loop
      vertex -23.4375 34.2188 8
      vertex -23.4375 -34.2188 8
      vertex -23.3046 -34.2188 8
    endloop
  endfacet
  facet normal 0 0 1
    outer loop
      vertex -22.305 -36.6986 8
      vertex -23.4375 34.2188 8
      vertex -23.3046 -34.2188 8
    endloop
  endfacet
  facet normal 0 0 1
    outer loop
      vertex -23.3046 -35.1432 8
      vertex -22.305 -36.6986 8
      vertex -23.3046 -34.2188 8
    endloop
  endfacet
  facet normal 0 0 1
    outer loop
      vertex -20.5917 -34.875 8
      vertex -20.6232 -37.4666 8
      vertex -20.5917 -35.7728 8
    endloop
  endfacet
  facet normal 0 0 1
    outer loop
      vertex -20.75 1.375 8
      vertex -20.5917 1.375 8
      vertex -23.4375 34.2188 8
    endloop
  endfacet
  facet normal 0 0 1
    outer loop
      vertex -20.1562 -37.5 8
      vertex -18.125 -37.5 8
      vertex -20.1562 -37.3995 8
    endloop
  endfacet
  facet normal 0 0 1
    outer loop
      vertex -23.3046 35.1432 8
      vertex -20.6232 37.4666 8
      vertex -22.305 36.6986 8
    endloop
  endfacet
  facet normal 0 0 1
    outer loop
      vertex -20.5917 -34.875 8
      vertex -20.75 -34.875 8
      vertex -20.6232 -37.4666 8
    endloop
  endfacet
  facet normal 0 0 1
    outer loop
      vertex -20.1562 -37.3995 8
      vertex -18.125 -37.5 8
      vertex -19.4375 -37.1483 8
    endloop
  endfacet
  facet normal 0 0 1
    outer loop
      vertex -20.6232 -37.4666 8
      vertex -20.1562 -37.3995 8
      vertex -20.5917 -35.7728 8
    endloop
  endfacet
  facet normal 0 0 1
    outer loop
      vertex -23.3046 35.1432 8
      vertex -16.125 34.8333 8
      vertex -20.1562 37.3995 8
    endloop
  endfacet
  facet normal 0 0 1
    outer loop
      vertex -22.305 -36.6986 8
      vertex -20.75 -34.875 8
      vertex -23.4375 34.2188 8
    endloop
  endfacet
  facet normal 0 0 1
    outer loop
      vertex -22.305 -36.6986 8
      vertex -20.6232 -37.4666 8
      vertex -20.75 -34.875 8
    endloop
  endfacet
  facet normal 0 0 1
    outer loop
      vertex -20.5917 2.2728 8
      vertex -19.4375 3.64832 8
      vertex -23.4375 34.2188 8
    endloop
  endfacet
  facet normal 0 0 1
    outer loop
      vertex -19.4375 3.64832 8
      vertex -18.75 3.76954 8
      vertex -23.4375 34.2188 8
    endloop
  endfacet
  facet normal 0 0 1
    outer loop
      vertex -20.5917 1.375 8
      vertex -20.5917 2.2728 8
      vertex -23.4375 34.2188 8
    endloop
  endfacet
  facet normal 0 0 1
    outer loop
      vertex -18.75 32.2083 8
      vertex -18.5917 32.2083 8
      vertex -23.4375 34.2188 8
    endloop
  endfacet
  facet normal 0 0 1
    outer loop
      vertex -18.75 3.76954 8
      vertex -18.75 32.2083 8
      vertex -23.4375 34.2188 8
    endloop
  endfacet
  facet normal 0 0 1
    outer loop
      vertex -18.5917 32.2083 8
      vertex -18.5917 33.1061 8
      vertex -23.4375 34.2188 8
    endloop
  endfacet
  facet normal 0 0 1
    outer loop
      vertex 16.125 34.7131 8
      vertex 16.5808 34.7935 8
      vertex 16.125 34.8333 8
    endloop
  endfacet
  facet normal -0 0 1
    outer loop
      vertex 16.125 34.8333 8
      vertex 22.9166 35.9927 8
      vertex -16.125 34.8333 8
    endloop
  endfacet
  facet normal 0 0 1
    outer loop
      vertex 16.5808 34.7935 8
      vertex 23.4375 34.2188 8
      vertex 16.125 34.8333 8
    endloop
  endfacet
  facet normal 0 0 1
    outer loop
      vertex 18.1359 33.8957 8
      vertex 23.4375 34.2188 8
      vertex 16.5808 34.7935 8
    endloop
  endfacet
  facet normal 0 0 1
    outer loop
      vertex 18.75 32.2083 8
      vertex 23.4375 34.2188 8
      vertex 18.1359 33.8957 8
    endloop
  endfacet
  facet normal 0 0 1
    outer loop
      vertex 18.75 3.86245 8
      vertex 20.1359 3.06232 8
      vertex 18.75 32.2083 8
    endloop
  endfacet
  facet normal 0 0 1
    outer loop
      vertex 20.1359 3.06232 8
      vertex 20.75 1.375 8
      vertex 18.75 32.2083 8
    endloop
  endfacet
  facet normal 0 0 1
    outer loop
      vertex 20.75 1.375 8
      vertex 23.4375 -34.2188 8
      vertex 18.75 32.2083 8
    endloop
  endfacet
  facet normal 0 0 1
    outer loop
      vertex 20.75 -34.875 8
      vertex 21.5193 -37.2035 8
      vertex 20.75 1.375 8
    endloop
  endfacet
  facet normal 0 0 1
    outer loop
      vertex 18.5808 -37.4601 8
      vertex 20.1562 -37.5 8
      vertex 20.1359 -36.5623 8
    endloop
  endfacet
  facet normal -0 0 1
    outer loop
      vertex 20.1562 37.3995 8
      vertex 20.1562 37.5 8
      vertex -16.125 34.8333 8
    endloop
  endfacet
  facet normal 0 0 1
    outer loop
      vertex 20.1562 -37.3995 8
      vertex 21.5193 -37.2035 8
      vertex 20.75 -34.875 8
    endloop
  endfacet
  facet normal 0 0 1
    outer loop
      vertex 18.125 -37.5 8
      vertex 20.1562 -37.5 8
      vertex 18.5808 -37.4601 8
    endloop
  endfacet
  facet normal 0 0 1
    outer loop
      vertex 20.1359 -36.5623 8
      vertex 20.1562 -37.3995 8
      vertex 20.75 -34.875 8
    endloop
  endfacet
  facet normal 0 0 1
    outer loop
      vertex 20.1359 -36.5623 8
      vertex 20.1562 -37.5 8
      vertex 20.1562 -37.3995 8
    endloop
  endfacet
  facet normal 0 0 1
    outer loop
      vertex 21.5193 -37.2035 8
      vertex 22.9166 -35.9927 8
      vertex 20.75 1.375 8
    endloop
  endfacet
  facet normal 0 0 1
    outer loop
      vertex 22.9166 -35.9927 8
      vertex 23.4375 -34.2188 8
      vertex 20.75 1.375 8
    endloop
  endfacet
  facet normal 0 0 1
    outer loop
      vertex 23.4375 -34.2188 8
      vertex 23.4375 34.2188 8
      vertex 18.75 32.2083 8
    endloop
  endfacet
  facet normal 0 0 1
    outer loop
      vertex 23.4375 34.2188 8
      vertex 22.9166 35.9927 8
      vertex 16.125 34.8333 8
    endloop
  endfacet
  facet normal -0 0 1
    outer loop
      vertex 22.9166 35.9927 8
      vertex 21.5193 37.2035 8
      vertex -16.125 34.8333 8
    endloop
  endfacet
  facet normal -0 0 1
    outer loop
      vertex 21.5193 37.2035 8
      vertex 20.1562 37.3995 8
      vertex -16.125 34.8333 8
    endloop
  endfacet
  facet normal 0 0 1
    outer loop
      vertex 20.1562 37.5 8
      vertex -20.1562 37.5 8
      vertex -16.125 34.8333 8
    endloop
  endfacet
  facet normal 0 0 1
    outer loop
      vertex -16.125 34.8333 8
      vertex -20.1562 37.5 8
      vertex -20.1562 37.3995 8
    endloop
  endfacet
  facet normal 0 0 1
    outer loop
      vertex -18.5917 33.1061 8
      vertex -23.3046 34.2188 8
      vertex -23.4375 34.2188 8
    endloop
  endfacet
  facet normal 0 0 1
    outer loop
      vertex -18.5917 33.1061 8
      vertex -17.4375 34.4817 8
      vertex -23.3046 34.2188 8
    endloop
  endfacet
  facet normal 0 -0 1
    outer loop
      vertex 18.125 -37.3797 8
      vertex 18.125 -37.5 8
      vertex 18.5808 -37.4601 8
    endloop
  endfacet
  facet normal -0 0 1
    outer loop
      vertex -18.125 -37.3797 8
      vertex -19.4375 -37.1483 8
      vertex -18.125 -37.5 8
    endloop
  endfacet
  facet normal -0 0 1
    outer loop
      vertex -19.4375 -37.1483 8
      vertex -20.5917 -35.7728 8
      vertex -20.1562 -37.3995 8
    endloop
  endfacet
  facet normal 0 0 1
    outer loop
      vertex -20.75 -34.875 8
      vertex -20.75 1.375 8
      vertex -23.4375 34.2188 8
    endloop
  endfacet
  facet normal 0 0 1
    outer loop
      vertex -23.3046 35.1432 8
      vertex -16.125 34.7131 8
      vertex -16.125 34.8333 8
    endloop
  endfacet
  facet normal 0 0 1
    outer loop
      vertex -23.3046 35.1432 8
      vertex -17.4375 34.4817 8
      vertex -16.125 34.7131 8
    endloop
  endfacet
  facet normal 0 -0 1
    outer loop
      vertex -23.3046 35.1432 8
      vertex -23.3046 34.2188 8
      vertex -17.4375 34.4817 8
    endloop
  endfacet
  facet normal -1 -0 -0
    outer loop
      vertex -23.3046 -35.1432 0
      vertex -23.3046 -35.1432 8
      vertex -23.3046 -34.2188 0
    endloop
  endfacet
  facet normal -1 0 0
    outer loop
      vertex -23.3046 -34.2188 0
      vertex -23.3046 -35.1432 8
      vertex -23.3046 -34.2188 8
    endloop
  endfacet
  facet normal -0.841254 -0.540641 -0
    outer loop
      vertex -23.3046 -35.1432 0
      vertex -22.305 -36.6986 0
      vertex -23.3046 -35.1432 8
    endloop
  endfacet
  facet normal -0.841254 -0.540641 0
    outer loop
      vertex -23.3046 -35.1432 8
      vertex -22.305 -36.6986 0
      vertex -22.305 -36.6986 8
    endloop
  endfacet
  facet normal -0.415415 -0.909632 0
    outer loop
      vertex -22.305 -36.6986 8
      vertex -22.305 -36.6986 0
      vertex -20.6232 -37.4666 0
    endloop
  endfacet
  facet normal -0.415415 -0.909632 0
    outer loop
      vertex -20.6232 -37.4666 8
      vertex -22.305 -36.6986 8
      vertex -20.6232 -37.4666 0
    endloop
  endfacet
  facet normal 0.142315 -0.989821 0
    outer loop
      vertex -20.6232 -37.4666 8
      vertex -20.6232 -37.4666 0
      vertex -20.1562 -37.3995 0
    endloop
  endfacet
  facet normal 0.142315 -0.989821 0
    outer loop
      vertex -20.1562 -37.3995 8
      vertex -20.6232 -37.4666 8
      vertex -20.1562 -37.3995 0
    endloop
  endfacet
  facet normal -1 -0 -0
    outer loop
      vertex -20.1562 -37.5 0
      vertex -20.1562 -37.5 8
      vertex -20.1562 -37.3995 0
    endloop
  endfacet
  facet normal -1 0 0
    outer loop
      vertex -20.1562 -37.3995 0
      vertex -20.1562 -37.5 8
      vertex -20.1562 -37.3995 8
    endloop
  endfacet
  facet normal 0 -1 0
    outer loop
      vertex -20.1562 -37.5 8
      vertex -20.1562 -37.5 0
      vertex 20.1562 -37.5 0
    endloop
  endfacet
  facet normal 0 -1 0
    outer loop
      vertex -18.125 -37.5 8
      vertex -20.1562 -37.5 8
      vertex 20.1562 -37.5 0
    endloop
  endfacet
  facet normal 0 -1 0
    outer loop
      vertex 18.125 -37.5 8
      vertex -18.125 -37.5 8
      vertex 20.1562 -37.5 0
    endloop
  endfacet
  facet normal 0 -1 0
    outer loop
      vertex 20.1562 -37.5 8
      vertex 18.125 -37.5 8
      vertex 20.1562 -37.5 0
    endloop
  endfacet
  facet normal 0 -1 0
    outer loop
      vertex 18.125 -37.5 79
      vertex -18.125 -37.5 8
      vertex 18.125 -37.5 8
    endloop
  endfacet
  facet normal 0 -1 0
    outer loop
      vertex -18.125 -37.5 79
      vertex -18.125 -37.5 8
      vertex 18.125 -37.5 79
    endloop
  endfacet
  facet normal 1 0 -0
    outer loop
      vertex 20.1562 -37.5 8
      vertex 20.1562 -37.5 0
      vertex 20.1562 -37.3995 0
    endloop
  endfacet
  facet normal 1 0 0
    outer loop
      vertex 20.1562 -37.3995 8
      vertex 20.1562 -37.5 8
      vertex 20.1562 -37.3995 0
    endloop
  endfacet
  facet normal 0.142315 -0.989821 0
    outer loop
      vertex 20.1562 -37.3995 8
      vertex 20.1562 -37.3995 0
      vertex 21.5193 -37.2035 0
    endloop
  endfacet
  facet normal 0.142315 -0.989821 0
    outer loop
      vertex 21.5193 -37.2035 8
      vertex 20.1562 -37.3995 8
      vertex 21.5193 -37.2035 0
    endloop
  endfacet
  facet normal 0.654861 -0.75575 0
    outer loop
      vertex 21.5193 -37.2035 8
      vertex 21.5193 -37.2035 0
      vertex 22.9166 -35.9927 0
    endloop
  endfacet
  facet normal 0.654861 -0.75575 0
    outer loop
      vertex 22.9166 -35.9927 8
      vertex 21.5193 -37.2035 8
      vertex 22.9166 -35.9927 0
    endloop
  endfacet
  facet normal 0.959493 -0.281733 0
    outer loop
      vertex 22.9166 -35.9927 8
      vertex 22.9166 -35.9927 0
      vertex 23.4375 -34.2188 0
    endloop
  endfacet
  facet normal 0.959493 -0.281733 0
    outer loop
      vertex 23.4375 -34.2188 8
      vertex 22.9166 -35.9927 8
      vertex 23.4375 -34.2188 0
    endloop
  endfacet
  facet normal 1 0 -0
    outer loop
      vertex 23.4375 -34.2188 8
      vertex 23.4375 -34.2188 0
      vertex 23.4375 34.2188 0
    endloop
  endfacet
  facet normal 1 0 0
    outer loop
      vertex 23.4375 34.2188 8
      vertex 23.4375 -34.2188 8
      vertex 23.4375 34.2188 0
    endloop
  endfacet
  facet normal 0.959493 0.281733 0
    outer loop
      vertex 23.4375 34.2188 0
      vertex 22.9166 35.9927 0
      vertex 22.9166 35.9927 8
    endloop
  endfacet
  facet normal 0.959493 0.281733 -0
    outer loop
      vertex 23.4375 34.2188 8
      vertex 23.4375 34.2188 0
      vertex 22.9166 35.9927 8
    endloop
  endfacet
  facet normal 0.654861 0.75575 0
    outer loop
      vertex 21.5193 37.2035 0
      vertex 21.5193 37.2035 8
      vertex 22.9166 35.9927 0
    endloop
  endfacet
  facet normal 0.654861 0.75575 0
    outer loop
      vertex 22.9166 35.9927 0
      vertex 21.5193 37.2035 8
      vertex 22.9166 35.9927 8
    endloop
  endfacet
  facet normal 0.142315 0.989821 0
    outer loop
      vertex 20.1562 37.3995 0
      vertex 20.1562 37.3995 8
      vertex 21.5193 37.2035 0
    endloop
  endfacet
  facet normal 0.142315 0.989821 0
    outer loop
      vertex 21.5193 37.2035 0
      vertex 20.1562 37.3995 8
      vertex 21.5193 37.2035 8
    endloop
  endfacet
  facet normal 1 0 -0
    outer loop
      vertex 20.1562 37.3995 8
      vertex 20.1562 37.3995 0
      vertex 20.1562 37.5 0
    endloop
  endfacet
  facet normal 1 0 0
    outer loop
      vertex 20.1562 37.5 8
      vertex 20.1562 37.3995 8
      vertex 20.1562 37.5 0
    endloop
  endfacet
  facet normal 0 1 0
    outer loop
      vertex -20.1562 37.5 0
      vertex -20.1562 37.5 8
      vertex 20.1562 37.5 0
    endloop
  endfacet
  facet normal 0 1 0
    outer loop
      vertex 20.1562 37.5 0
      vertex -20.1562 37.5 8
      vertex 20.1562 37.5 8
    endloop
  endfacet
  facet normal -1 -0 -0
    outer loop
      vertex -20.1562 37.3995 0
      vertex -20.1562 37.3995 8
      vertex -20.1562 37.5 0
    endloop
  endfacet
  facet normal -1 0 0
    outer loop
      vertex -20.1562 37.5 0
      vertex -20.1562 37.3995 8
      vertex -20.1562 37.5 8
    endloop
  endfacet
  facet normal 0.142315 0.989821 0
    outer loop
      vertex -20.6232 37.4666 0
      vertex -20.6232 37.4666 8
      vertex -20.1562 37.3995 0
    endloop
  endfacet
  facet normal 0.142315 0.989821 0
    outer loop
      vertex -20.1562 37.3995 0
      vertex -20.6232 37.4666 8
      vertex -20.1562 37.3995 8
    endloop
  endfacet
  facet normal -0.415415 0.909632 0
    outer loop
      vertex -22.305 36.6986 0
      vertex -22.305 36.6986 8
      vertex -20.6232 37.4666 0
    endloop
  endfacet
  facet normal -0.415415 0.909632 0
    outer loop
      vertex -20.6232 37.4666 0
      vertex -22.305 36.6986 8
      vertex -20.6232 37.4666 8
    endloop
  endfacet
  facet normal -0.841254 0.540641 0
    outer loop
      vertex -23.3046 35.1432 0
      vertex -23.3046 35.1432 8
      vertex -22.305 36.6986 0
    endloop
  endfacet
  facet normal -0.841254 0.540641 0
    outer loop
      vertex -22.305 36.6986 0
      vertex -23.3046 35.1432 8
      vertex -22.305 36.6986 8
    endloop
  endfacet
  facet normal -1 -0 -0
    outer loop
      vertex -23.3046 34.2188 0
      vertex -23.3046 34.2188 8
      vertex -23.3046 35.1432 0
    endloop
  endfacet
  facet normal -1 0 0
    outer loop
      vertex -23.3046 35.1432 0
      vertex -23.3046 34.2188 8
      vertex -23.3046 35.1432 8
    endloop
  endfacet
  facet normal 1 0 -0
    outer loop
      vertex 18.125 -37.5 79
      vertex 18.125 -37.5 8
      vertex 18.125 -37.3797 8
    endloop
  endfacet
  facet normal 1 0 0
    outer loop
      vertex 18.125 -37.3797 79
      vertex 18.125 -37.5 79
      vertex 18.125 -37.3797 8
    endloop
  endfacet
  facet normal -0.173648 -0.984808 0
    outer loop
      vertex 18.125 -37.3797 79
      vertex 18.125 -37.3797 8
      vertex 18.5808 -37.4601 8
    endloop
  endfacet
  facet normal -0.173648 -0.984808 0
    outer loop
      vertex 18.5808 -37.4601 79
      vertex 18.125 -37.3797 79
      vertex 18.5808 -37.4601 8
    endloop
  endfacet
  facet normal 0.5 -0.866025 0
    outer loop
      vertex 18.5808 -37.4601 79
      vertex 18.5808 -37.4601 8
      vertex 20.1359 -36.5623 8
    endloop
  endfacet
  facet normal 0.5 -0.866025 0
    outer loop
      vertex 20.1359 -36.5623 79
      vertex 18.5808 -37.4601 79
      vertex 20.1359 -36.5623 8
    endloop
  endfacet
  facet normal 0.939693 -0.34202 0
    outer loop
      vertex 20.1359 -36.5623 79
      vertex 20.1359 -36.5623 8
      vertex 20.75 -34.875 8
    endloop
  endfacet
  facet normal 0.939693 -0.34202 0
    outer loop
      vertex 20.75 -34.875 79
      vertex 20.1359 -36.5623 79
      vertex 20.75 -34.875 8
    endloop
  endfacet
  facet normal 1 0 -0
    outer loop
      vertex 20.75 -34.875 79
      vertex 20.75 -34.875 8
      vertex 20.75 1.375 8
    endloop
  endfacet
  facet normal 1 0 0
    outer loop
      vertex 20.75 1.375 79
      vertex 20.75 -34.875 79
      vertex 20.75 1.375 8
    endloop
  endfacet
  facet normal 0.939693 0.34202 0
    outer loop
      vertex 20.75 1.375 8
      vertex 20.1359 3.06232 8
      vertex 20.1359 3.06232 79
    endloop
  endfacet
  facet normal 0.939693 0.34202 -0
    outer loop
      vertex 20.75 1.375 79
      vertex 20.75 1.375 8
      vertex 20.1359 3.06232 79
    endloop
  endfacet
  facet normal 0.5 0.866025 0
    outer loop
      vertex 18.5808 3.96012 24.3596
      vertex 18.5808 3.96012 79
      vertex 18.75 3.86245 22.75
    endloop
  endfacet
  facet normal 0.5 0.866025 -1.95368e-17
    outer loop
      vertex 18.75 3.86245 22.75
      vertex 18.5808 3.96012 79
      vertex 20.1359 3.06232 79
    endloop
  endfacet
  facet normal 0.5 0.866025 0
    outer loop
      vertex 18.75 3.86245 22.75
      vertex 20.1359 3.06232 79
      vertex 20.1359 3.06232 8
    endloop
  endfacet
  facet normal 0.5 0.866025 -0
    outer loop
      vertex 18.75 3.86245 22.75
      vertex 20.1359 3.06232 8
      vertex 18.75 3.86245 8
    endloop
  endfacet
  facet normal -1 0 0
    outer loop
      vertex 18.75 2 79
      vertex 18.75 2 41.4
      vertex 18.75 -35.5 79
    endloop
  endfacet
  facet normal -1 0 0
    outer loop
      vertex 18.75 -35.5 79
      vertex 18.75 2 41.4
      vertex 18.75 1 41.4
    endloop
  endfacet
  facet normal -1 0 0
    outer loop
      vertex 18.75 -35.5 79
      vertex 18.75 1 41.4
      vertex 18.75 1 22.75
    endloop
  endfacet
  facet normal -1 0 0
    outer loop
      vertex 18.75 1 22.75
      vertex 18.75 3.86245 8
      vertex 18.75 -35.5 79
    endloop
  endfacet
  facet normal -1 0 0
    outer loop
      vertex 18.75 2 22.75
      vertex 18.75 3.86245 22.75
      vertex 18.75 3.86245 8
    endloop
  endfacet
  facet normal -1 0 0
    outer loop
      vertex 18.75 2 22.75
      vertex 18.75 3.86245 8
      vertex 18.75 1 22.75
    endloop
  endfacet
  facet normal -1 0 0
    outer loop
      vertex 18.75 3.86245 8
      vertex 18.75 32.2083 8
      vertex 18.75 32.2083 4
    endloop
  endfacet
  facet normal -1 0 0
    outer loop
      vertex 18.75 3.86245 8
      vertex 18.75 32.2083 4
      vertex 18.75 -34.6 4
    endloop
  endfacet
  facet normal -1 0 0
    outer loop
      vertex 18.75 3.86245 8
      vertex 18.75 -34.6 4
      vertex 18.75 -34.6 19.4
    endloop
  endfacet
  facet normal -1 0 0
    outer loop
      vertex 18.75 3.86245 8
      vertex 18.75 -34.6 19.4
      vertex 18.75 -35.5 79
    endloop
  endfacet
  facet normal -1 -0 -0
    outer loop
      vertex 18.75 -35.5 19.4
      vertex 18.75 -35.5 79
      vertex 18.75 -34.6 19.4
    endloop
  endfacet
  facet normal -0.939693 -0.34202 0
    outer loop
      vertex 18.75 32.2083 8
      vertex 18.1359 33.8957 8
      vertex 18.75 32.2083 4
    endloop
  endfacet
  facet normal -0.939693 -0.34202 0
    outer loop
      vertex 18.75 32.2083 4
      vertex 18.1359 33.8957 8
      vertex 18.1359 33.8957 4
    endloop
  endfacet
  facet normal -0.5 -0.866025 -0
    outer loop
      vertex 18.1359 33.8957 4
      vertex 18.1359 33.8957 8
      vertex 16.5808 34.7935 8
    endloop
  endfacet
  facet normal -0.5 -0.866025 -0
    outer loop
      vertex 16.5808 34.7935 4
      vertex 18.1359 33.8957 4
      vertex 16.5808 34.7935 8
    endloop
  endfacet
  facet normal 0.173648 -0.984808 0
    outer loop
      vertex 16.5808 34.7935 4
      vertex 16.5808 34.7935 8
      vertex 16.125 34.7131 8
    endloop
  endfacet
  facet normal 0.173648 -0.984808 0
    outer loop
      vertex 16.125 34.7131 4
      vertex 16.5808 34.7935 4
      vertex 16.125 34.7131 8
    endloop
  endfacet
  facet normal -1 0 0
    outer loop
      vertex 16.125 34.8333 8
      vertex 16.125 34.8333 4
      vertex 16.125 34.7131 8
    endloop
  endfacet
  facet normal -1 0 0
    outer loop
      vertex 16.125 34.7131 8
      vertex 16.125 34.8333 4
      vertex 16.125 34.7131 4
    endloop
  endfacet
  facet normal 0 -1 0
    outer loop
      vertex 16.125 34.8333 4
      vertex 16.125 34.8333 8
      vertex -16.125 34.8333 8
    endloop
  endfacet
  facet normal -0 -1 -0
    outer loop
      vertex -16.125 34.8333 4
      vertex 16.125 34.8333 4
      vertex -16.125 34.8333 8
    endloop
  endfacet
  facet normal 1 0 0
    outer loop
      vertex -16.125 34.8333 4
      vertex -16.125 34.8333 8
      vertex -16.125 34.7131 8
    endloop
  endfacet
  facet normal 1 0 0
    outer loop
      vertex -16.125 34.7131 4
      vertex -16.125 34.8333 4
      vertex -16.125 34.7131 8
    endloop
  endfacet
  facet normal 0.173648 -0.984808 0
    outer loop
      vertex -16.125 34.7131 4
      vertex -16.125 34.7131 8
      vertex -17.4375 34.4817 8
    endloop
  endfacet
  facet normal 0.173648 -0.984808 0
    outer loop
      vertex -17.4375 34.4817 4
      vertex -16.125 34.7131 4
      vertex -17.4375 34.4817 8
    endloop
  endfacet
  facet normal 0.766045 -0.642788 0
    outer loop
      vertex -17.4375 34.4817 4
      vertex -17.4375 34.4817 8
      vertex -18.5917 33.1061 8
    endloop
  endfacet
  facet normal 0.766045 -0.642788 0
    outer loop
      vertex -18.5917 33.1061 4
      vertex -17.4375 34.4817 4
      vertex -18.5917 33.1061 8
    endloop
  endfacet
  facet normal 1 0 0
    outer loop
      vertex -18.5917 33.1061 4
      vertex -18.5917 33.1061 8
      vertex -18.5917 32.2083 8
    endloop
  endfacet
  facet normal 1 0 0
    outer loop
      vertex -18.5917 32.2083 4
      vertex -18.5917 33.1061 4
      vertex -18.5917 32.2083 8
    endloop
  endfacet
  facet normal 0 -1 0
    outer loop
      vertex -18.5917 32.2083 4
      vertex -18.5917 32.2083 8
      vertex -18.75 32.2083 8
    endloop
  endfacet
  facet normal -0 -1 -0
    outer loop
      vertex -18.75 32.2083 4
      vertex -18.5917 32.2083 4
      vertex -18.75 32.2083 8
    endloop
  endfacet
  facet normal 1 0 -0
    outer loop
      vertex -18.75 3.76954 8
      vertex -18.75 -34.6 4
      vertex -18.75 32.2083 4
    endloop
  endfacet
  facet normal 1 0 0
    outer loop
      vertex -18.75 3.76954 8
      vertex -18.75 3.76954 22.75
      vertex -18.75 -34.6 19.4
    endloop
  endfacet
  facet normal 1 0 -0
    outer loop
      vertex -18.75 -34.6 19.4
      vertex -18.75 -34.6 4
      vertex -18.75 3.76954 8
    endloop
  endfacet
  facet normal 1 0 -0
    outer loop
      vertex -18.75 2 22.75
      vertex -18.75 -34.6 19.4
      vertex -18.75 3.76954 22.75
    endloop
  endfacet
  facet normal 1 0 0
    outer loop
      vertex -18.75 2 79
      vertex -18.75 -34.6 19.4
      vertex -18.75 2 22.75
    endloop
  endfacet
  facet normal 1 0 0
    outer loop
      vertex -18.75 -35.5 79
      vertex -18.75 -34.6 19.4
      vertex -18.75 2 79
    endloop
  endfacet
  facet normal 1 0 0
    outer loop
      vertex -18.75 32.2083 8
      vertex -18.75 3.76954 8
      vertex -18.75 32.2083 4
    endloop
  endfacet
  facet normal 1 0 0
    outer loop
      vertex -18.75 -35.5 19.4
      vertex -18.75 -34.6 19.4
      vertex -18.75 -35.5 79
    endloop
  endfacet
  facet normal -0.173648 0.984808 0
    outer loop
      vertex -19.4375 3.64832 8
      vertex -19.4375 3.64832 79
      vertex -18.75 3.76954 8
    endloop
  endfacet
  facet normal -0.173648 0.984808 -1.25824e-17
    outer loop
      vertex -18.75 3.76954 22.75
      vertex -19.4375 3.64832 79
      vertex -18.125 3.87975 79
    endloop
  endfacet
  facet normal -0.173648 0.984808 0
    outer loop
      vertex -18.3403 3.84179 26.6483
      vertex -18.125 3.87975 79
      vertex -18.125 3.87975 27.3109
    endloop
  endfacet
  facet normal -0.173648 0.984808 0
    outer loop
      vertex -18.75 3.76954 8
      vertex -19.4375 3.64832 79
      vertex -18.75 3.76954 22.75
    endloop
  endfacet
  facet normal -0.173648 0.984808 3.99448e-18
    outer loop
      vertex -18.75 3.76954 22.75
      vertex -18.125 3.87975 79
      vertex -18.3403 3.84179 26.6483
    endloop
  endfacet
  facet normal -0.766045 0.642788 0
    outer loop
      vertex -20.5917 2.2728 8
      vertex -20.5917 2.2728 79
      vertex -19.4375 3.64832 8
    endloop
  endfacet
  facet normal -0.766045 0.642788 0
    outer loop
      vertex -19.4375 3.64832 8
      vertex -20.5917 2.2728 79
      vertex -19.4375 3.64832 79
    endloop
  endfacet
  facet normal -1 -0 -0
    outer loop
      vertex -20.5917 1.375 8
      vertex -20.5917 1.375 79
      vertex -20.5917 2.2728 8
    endloop
  endfacet
  facet normal -1 0 0
    outer loop
      vertex -20.5917 2.2728 8
      vertex -20.5917 1.375 79
      vertex -20.5917 2.2728 79
    endloop
  endfacet
  facet normal 0 1 0
    outer loop
      vertex -20.75 1.375 8
      vertex -20.75 1.375 79
      vertex -20.5917 1.375 8
    endloop
  endfacet
  facet normal 0 1 0
    outer loop
      vertex -20.5917 1.375 8
      vertex -20.75 1.375 79
      vertex -20.5917 1.375 79
    endloop
  endfacet
  facet normal -1 -0 -0
    outer loop
      vertex -20.75 -34.875 8
      vertex -20.75 -34.875 79
      vertex -20.75 1.375 8
    endloop
  endfacet
  facet normal -1 0 0
    outer loop
      vertex -20.75 1.375 8
      vertex -20.75 -34.875 79
      vertex -20.75 1.375 79
    endloop
  endfacet
  facet normal 0 -1 0
    outer loop
      vertex -20.75 -34.875 79
      vertex -20.75 -34.875 8
      vertex -20.5917 -34.875 8
    endloop
  endfacet
  facet normal 0 -1 0
    outer loop
      vertex -20.5917 -34.875 79
      vertex -20.75 -34.875 79
      vertex -20.5917 -34.875 8
    endloop
  endfacet
  facet normal -1 -0 -0
    outer loop
      vertex -20.5917 -35.7728 8
      vertex -20.5917 -35.7728 79
      vertex -20.5917 -34.875 8
    endloop
  endfacet
  facet normal -1 0 0
    outer loop
      vertex -20.5917 -34.875 8
      vertex -20.5917 -35.7728 79
      vertex -20.5917 -34.875 79
    endloop
  endfacet
  facet normal -0.766045 -0.642788 -0
    outer loop
      vertex -20.5917 -35.7728 8
      vertex -19.4375 -37.1483 8
      vertex -20.5917 -35.7728 79
    endloop
  endfacet
  facet normal -0.766045 -0.642788 0
    outer loop
      vertex -20.5917 -35.7728 79
      vertex -19.4375 -37.1483 8
      vertex -19.4375 -37.1483 79
    endloop
  endfacet
  facet normal -0.173648 -0.984808 0
    outer loop
      vertex -19.4375 -37.1483 79
      vertex -19.4375 -37.1483 8
      vertex -18.125 -37.3797 8
    endloop
  endfacet
  facet normal -0.173648 -0.984808 0
    outer loop
      vertex -18.125 -37.3797 79
      vertex -19.4375 -37.1483 79
      vertex -18.125 -37.3797 8
    endloop
  endfacet
  facet normal -1 -0 -0
    outer loop
      vertex -18.125 -37.5 8
      vertex -18.125 -37.5 79
      vertex -18.125 -37.3797 8
    endloop
  endfacet
  facet normal -1 0 0
    outer loop
      vertex -18.125 -37.3797 8
      vertex -18.125 -37.5 79
      vertex -18.125 -37.3797 79
    endloop
  endfacet
  facet normal 0 -0 1
    outer loop
      vertex -20.75 1.375 79
      vertex -20.75 -34.875 79
      vertex -20.5917 -34.875 79
    endloop
  endfacet
  facet normal 0 0 1
    outer loop
      vertex -19.4375 -37.1483 79
      vertex -20.75 1.375 79
      vertex -20.5917 -34.875 79
    endloop
  endfacet
  facet normal 0 0 1
    outer loop
      vertex -20.5917 -35.7728 79
      vertex -19.4375 -37.1483 79
      vertex -20.5917 -34.875 79
    endloop
  endfacet
  facet normal 0 0 1
    outer loop
      vertex -18.75 2 79
      vertex 18.75 2 79
      vertex 20.1359 3.06232 79
    endloop
  endfacet
  facet normal 0 0 1
    outer loop
      vertex -18.125 -37.5 79
      vertex 18.125 -37.5 79
      vertex -18.125 -37.3797 79
    endloop
  endfacet
  facet normal 0 -0 1
    outer loop
      vertex 18.75 2 79
      vertex 18.75 -35.5 79
      vertex 20.1359 -36.5623 79
    endloop
  endfacet
  facet normal 0 0 1
    outer loop
      vertex 18.75 -35.5 79
      vertex 18.125 -37.3797 79
      vertex 18.5808 -37.4601 79
    endloop
  endfacet
  facet normal 0 0 1
    outer loop
      vertex 20.1359 3.06232 79
      vertex 18.5808 3.96012 79
      vertex 18.125 3.87975 79
    endloop
  endfacet
  facet normal 0 0 1
    outer loop
      vertex -20.5917 2.2728 79
      vertex -18.125 3.87975 79
      vertex -19.4375 3.64832 79
    endloop
  endfacet
  facet normal 0 0 1
    outer loop
      vertex 18.75 -35.5 79
      vertex -18.75 -35.5 79
      vertex -18.125 -37.3797 79
    endloop
  endfacet
  facet normal 0 0 1
    outer loop
      vertex 18.125 4 79
      vertex -18.125 4 79
      vertex -18.125 3.87975 79
    endloop
  endfacet
  facet normal 0 0 1
    outer loop
      vertex -18.75 -35.5 79
      vertex -20.5917 1.375 79
      vertex -20.75 1.375 79
    endloop
  endfacet
  facet normal 0 0 1
    outer loop
      vertex 18.75 2 79
      vertex 20.75 -34.875 79
      vertex 20.75 1.375 79
    endloop
  endfacet
  facet normal 0 0 1
    outer loop
      vertex -19.4375 -37.1483 79
      vertex -18.75 -35.5 79
      vertex -20.75 1.375 79
    endloop
  endfacet
  facet normal 0 0 1
    outer loop
      vertex -19.4375 -37.1483 79
      vertex -18.125 -37.3797 79
      vertex -18.75 -35.5 79
    endloop
  endfacet
  facet normal 0 0 1
    outer loop
      vertex 18.75 -35.5 79
      vertex -18.125 -37.3797 79
      vertex 18.125 -37.3797 79
    endloop
  endfacet
  facet normal 0 0 1
    outer loop
      vertex 18.125 4 79
      vertex -18.125 3.87975 79
      vertex -18.75 2 79
    endloop
  endfacet
  facet normal 0 0 1
    outer loop
      vertex 18.75 2 79
      vertex 20.1359 -36.5623 79
      vertex 20.75 -34.875 79
    endloop
  endfacet
  facet normal 0 0 1
    outer loop
      vertex 20.75 1.375 79
      vertex 20.1359 3.06232 79
      vertex 18.75 2 79
    endloop
  endfacet
  facet normal 0 0 1
    outer loop
      vertex 18.5808 -37.4601 79
      vertex 20.1359 -36.5623 79
      vertex 18.75 -35.5 79
    endloop
  endfacet
  facet normal 0 0 1
    outer loop
      vertex 18.125 -37.3797 79
      vertex -18.125 -37.3797 79
      vertex 18.125 -37.5 79
    endloop
  endfacet
  facet normal 0 0 1
    outer loop
      vertex -20.5917 2.2728 79
      vertex -18.75 2 79
      vertex -18.125 3.87975 79
    endloop
  endfacet
  facet normal 0 0 1
    outer loop
      vertex -18.75 2 79
      vertex 18.125 3.87975 79
      vertex 18.125 4 79
    endloop
  endfacet
  facet normal 0 0 1
    outer loop
      vertex -18.75 2 79
      vertex 20.1359 3.06232 79
      vertex 18.125 3.87975 79
    endloop
  endfacet
  facet normal 0 -0 1
    outer loop
      vertex -20.5917 2.2728 79
      vertex -20.5917 1.375 79
      vertex -18.75 2 79
    endloop
  endfacet
  facet normal 0 0 1
    outer loop
      vertex -18.75 -35.5 79
      vertex -18.75 2 79
      vertex -20.5917 1.375 79
    endloop
  endfacet
  facet normal -0.994522 3.84148e-15 -0.104528
    outer loop
      vertex 18.5808 3.96012 24.3596
      vertex 18.75 3.86245 22.75
      vertex 18.3403 3.9177 26.6483
    endloop
  endfacet
  facet normal -0.994522 -1.90667e-15 -0.104528
    outer loop
      vertex 18.3403 3.9177 26.6483
      vertex 18.75 3.86245 22.75
      vertex 18.75 2 22.75
    endloop
  endfacet
  facet normal -0.994522 0 -0.104528
    outer loop
      vertex 18.3403 3.9177 26.6483
      vertex 18.75 2 22.75
      vertex 18.75 1 22.75
    endloop
  endfacet
  facet normal -0.994522 0 -0.104528
    outer loop
      vertex 18.3403 3.9177 26.6483
      vertex 18.75 1 22.75
      vertex 18.3403 1 26.6483
    endloop
  endfacet
  facet normal -0.173648 0.984808 0
    outer loop
      vertex 18.125 3.87975 27.3109
      vertex 18.125 3.87975 79
      vertex 18.3403 3.9177 26.6483
    endloop
  endfacet
  facet normal -0.173648 0.984808 -1.95736e-18
    outer loop
      vertex 18.3403 3.9177 26.6483
      vertex 18.125 3.87975 79
      vertex 18.5808 3.96012 79
    endloop
  endfacet
  facet normal -0.173648 0.984808 0
    outer loop
      vertex 18.3403 3.9177 26.6483
      vertex 18.5808 3.96012 79
      vertex 18.5808 3.96012 24.3596
    endloop
  endfacet
  facet normal 0 1 0
    outer loop
      vertex 18.75 -35.5 79
      vertex 18.75 -35.5 19.4
      vertex -18.75 -35.5 79
    endloop
  endfacet
  facet normal 0 1 -0
    outer loop
      vertex -18.75 -35.5 79
      vertex 18.75 -35.5 19.4
      vertex -18.75 -35.5 19.4
    endloop
  endfacet
  facet normal 0 -0 1
    outer loop
      vertex -18.75 -34.6 19.4
      vertex -18.75 -35.5 19.4
      vertex 18.75 -35.5 19.4
    endloop
  endfacet
  facet normal 0 0 1
    outer loop
      vertex 18.75 -34.6 19.4
      vertex -18.75 -34.6 19.4
      vertex 18.75 -35.5 19.4
    endloop
  endfacet
  facet normal 0 1 0
    outer loop
      vertex -18.75 -34.6 4
      vertex -18.75 -34.6 19.4
      vertex 18.75 -34.6 4
    endloop
  endfacet
  facet normal 0 1 0
    outer loop
      vertex 18.75 -34.6 4
      vertex -18.75 -34.6 19.4
      vertex 18.75 -34.6 19.4
    endloop
  endfacet
  facet normal 0 0 1
    outer loop
      vertex 18.75 -34.6 4
      vertex 18.75 32.2083 4
      vertex 18.1359 33.8957 4
    endloop
  endfacet
  facet normal 0 0 1
    outer loop
      vertex 16.125 34.7131 4
      vertex 18.75 -34.6 4
      vertex 16.5808 34.7935 4
    endloop
  endfacet
  facet normal 0 0 1
    outer loop
      vertex 16.5808 34.7935 4
      vertex 18.75 -34.6 4
      vertex 18.1359 33.8957 4
    endloop
  endfacet
  facet normal 0 0 1
    outer loop
      vertex -16.125 34.8333 4
      vertex 18.75 -34.6 4
      vertex 16.125 34.7131 4
    endloop
  endfacet
  facet normal 0 0 1
    outer loop
      vertex -16.125 34.8333 4
      vertex 16.125 34.7131 4
      vertex 16.125 34.8333 4
    endloop
  endfacet
  facet normal 0 0 1
    outer loop
      vertex -16.125 34.7131 4
      vertex 18.75 -34.6 4
      vertex -16.125 34.8333 4
    endloop
  endfacet
  facet normal 0 0 1
    outer loop
      vertex -17.4375 34.4817 4
      vertex 18.75 -34.6 4
      vertex -16.125 34.7131 4
    endloop
  endfacet
  facet normal 0 0 1
    outer loop
      vertex -18.5917 33.1061 4
      vertex 18.75 -34.6 4
      vertex -17.4375 34.4817 4
    endloop
  endfacet
  facet normal 0 0 1
    outer loop
      vertex -18.5917 32.2083 4
      vertex 18.75 -34.6 4
      vertex -18.5917 33.1061 4
    endloop
  endfacet
  facet normal 0 0 1
    outer loop
      vertex -18.75 32.2083 4
      vertex 18.75 -34.6 4
      vertex -18.5917 32.2083 4
    endloop
  endfacet
  facet normal 0 0 1
    outer loop
      vertex -18.75 -34.6 4
      vertex 18.75 -34.6 4
      vertex -18.75 32.2083 4
    endloop
  endfacet
  facet normal -7.18973e-16 -1 -2.25826e-16
    outer loop
      vertex -18.3403 1 26.6483
      vertex -18.65 1 41.4
      vertex -18.65 1 23.7014
    endloop
  endfacet
  facet normal -7.95475e-17 -1 -2.12401e-16
    outer loop
      vertex -17.129 1 30.3763
      vertex -18.65 1 41.4
      vertex -18.3403 1 26.6483
    endloop
  endfacet
  facet normal -2.67059e-16 -1 -2.38273e-16
    outer loop
      vertex -15.1691 1 33.771
      vertex -18.65 1 41.4
      vertex -17.129 1 30.3763
    endloop
  endfacet
  facet normal -1.95114e-16 -1 -2.05447e-16
    outer loop
      vertex -12.5462 1 36.684
      vertex -18.65 1 41.4
      vertex -15.1691 1 33.771
    endloop
  endfacet
  facet normal -2.34146e-16 -1 -2.55964e-16
    outer loop
      vertex -9.375 1 38.988
      vertex -18.65 1 41.4
      vertex -12.5462 1 36.684
    endloop
  endfacet
  facet normal -2.20108e-16 -1 -2.01984e-16
    outer loop
      vertex -5.79407 1 40.5823
      vertex -18.65 1 41.4
      vertex -9.375 1 38.988
    endloop
  endfacet
  facet normal -2.26216e-16 -1 -2.98014e-16
    outer loop
      vertex -1.95991 1 41.3973
      vertex -18.65 1 41.4
      vertex -5.79407 1 40.5823
    endloop
  endfacet
  facet normal -2.1967e-16 -1 3.99592e-14
    outer loop
      vertex 18.75 1 41.4
      vertex -18.65 1 41.4
      vertex -1.95991 1 41.3973
    endloop
  endfacet
  facet normal -2.26587e-16 -1 9.27401e-14
    outer loop
      vertex 18.75 1 41.4
      vertex -1.95991 1 41.3973
      vertex 1.95991 1 41.3973
    endloop
  endfacet
  facet normal -1.924e-16 -1 -2.64816e-16
    outer loop
      vertex 9.375 1 38.988
      vertex 12.5462 1 36.684
      vertex 18.75 1 41.4
    endloop
  endfacet
  facet normal -2.33728e-16 -1 -2.1045e-16
    outer loop
      vertex 15.1691 1 33.771
      vertex 18.75 1 41.4
      vertex 12.5462 1 36.684
    endloop
  endfacet
  facet normal -2.43374e-16 -1 -2.05922e-16
    outer loop
      vertex 17.129 1 30.3763
      vertex 18.75 1 41.4
      vertex 15.1691 1 33.771
    endloop
  endfacet
  facet normal -1.33535e-16 -1 -2.22074e-16
    outer loop
      vertex 18.3403 1 26.6483
      vertex 18.75 1 41.4
      vertex 17.129 1 30.3763
    endloop
  endfacet
  facet normal -4.13206e-16 -1 -2.14306e-16
    outer loop
      vertex 18.75 1 22.75
      vertex 18.75 1 41.4
      vertex 18.3403 1 26.6483
    endloop
  endfacet
  facet normal -2.11567e-16 -1 -1.77979e-16
    outer loop
      vertex 1.95991 1 41.3973
      vertex 5.79407 1 40.5823
      vertex 18.75 1 41.4
    endloop
  endfacet
  facet normal -2.10535e-16 -1 -1.94328e-16
    outer loop
      vertex 5.79407 1 40.5823
      vertex 9.375 1 38.988
      vertex 18.75 1 41.4
    endloop
  endfacet
  facet normal 0 -0 1
    outer loop
      vertex -18.65 2 41.4
      vertex -18.65 1 41.4
      vertex 18.75 1 41.4
    endloop
  endfacet
  facet normal 0 0 1
    outer loop
      vertex 18.75 2 41.4
      vertex -18.65 2 41.4
      vertex 18.75 1 41.4
    endloop
  endfacet
  facet normal 0 -1 0
    outer loop
      vertex 18.75 2 79
      vertex -18.65 2 41.4
      vertex 18.75 2 41.4
    endloop
  endfacet
  facet normal 0 -1 0
    outer loop
      vertex -18.75 2 79
      vertex -18.65 2 41.4
      vertex 18.75 2 79
    endloop
  endfacet
  facet normal 0 -1 0
    outer loop
      vertex -18.65 2 23.7014
      vertex -18.65 2 41.4
      vertex -18.75 2 79
    endloop
  endfacet
  facet normal 0 -1 -0
    outer loop
      vertex -18.75 2 22.75
      vertex -18.65 2 23.7014
      vertex -18.75 2 79
    endloop
  endfacet
  facet normal 0.994522 0 -0.104528
    outer loop
      vertex -18.75 3.76954 22.75
      vertex -18.3403 3.84179 26.6483
      vertex -18.3403 1 26.6483
    endloop
  endfacet
  facet normal 0.994522 5.94293e-16 -0.104528
    outer loop
      vertex -18.65 2 23.7014
      vertex -18.75 3.76954 22.75
      vertex -18.3403 1 26.6483
    endloop
  endfacet
  facet normal 0.994522 -3.16189e-15 -0.104528
    outer loop
      vertex -18.65 1 23.7014
      vertex -18.65 2 23.7014
      vertex -18.3403 1 26.6483
    endloop
  endfacet
  facet normal 0.994522 -2.00125e-15 -0.104528
    outer loop
      vertex -18.65 2 23.7014
      vertex -18.75 2 22.75
      vertex -18.75 3.76954 22.75
    endloop
  endfacet
  facet normal 0.951056 -2.46041e-14 -0.309017
    outer loop
      vertex -18.3403 3.84179 26.6483
      vertex -18.125 3.87975 27.3109
      vertex -17.129 4 30.3763
    endloop
  endfacet
  facet normal 0.951056 0 -0.309017
    outer loop
      vertex -17.129 4 30.3763
      vertex -18.125 3.87975 27.3109
      vertex -18.125 4 27.3109
    endloop
  endfacet
  facet normal 0.951056 0 -0.309017
    outer loop
      vertex -18.3403 3.84179 26.6483
      vertex -17.129 4 30.3763
      vertex -17.129 1 30.3763
    endloop
  endfacet
  facet normal 0.951056 0 -0.309017
    outer loop
      vertex -18.3403 3.84179 26.6483
      vertex -17.129 1 30.3763
      vertex -18.3403 1 26.6483
    endloop
  endfacet
  facet normal -1 -0 -0
    outer loop
      vertex -18.125 3.87975 27.3109
      vertex -18.125 3.87975 79
      vertex -18.125 4 27.3109
    endloop
  endfacet
  facet normal -1 0 0
    outer loop
      vertex -18.125 4 27.3109
      vertex -18.125 3.87975 79
      vertex -18.125 4 79
    endloop
  endfacet
  facet normal 0 1 0
    outer loop
      vertex -18.125 4 27.3109
      vertex -18.125 4 79
      vertex -17.129 4 30.3763
    endloop
  endfacet
  facet normal 0 1 0
    outer loop
      vertex -15.1691 4 33.771
      vertex 18.125 4 79
      vertex -12.5462 4 36.684
    endloop
  endfacet
  facet normal 0 1 0
    outer loop
      vertex -15.1691 4 33.771
      vertex -18.125 4 79
      vertex 18.125 4 79
    endloop
  endfacet
  facet normal 0 1 0
    outer loop
      vertex 18.125 4 79
      vertex 18.125 4 27.3109
      vertex 17.129 4 30.3763
    endloop
  endfacet
  facet normal 0 1 0
    outer loop
      vertex 18.125 4 79
      vertex 17.129 4 30.3763
      vertex 15.1691 4 33.771
    endloop
  endfacet
  facet normal 0 1 0
    outer loop
      vertex 18.125 4 79
      vertex 15.1691 4 33.771
      vertex 12.5462 4 36.684
    endloop
  endfacet
  facet normal 0 1 0
    outer loop
      vertex 18.125 4 79
      vertex 12.5462 4 36.684
      vertex 9.375 4 38.988
    endloop
  endfacet
  facet normal 0 1 0
    outer loop
      vertex 18.125 4 79
      vertex 9.375 4 38.988
      vertex 5.79407 4 40.5823
    endloop
  endfacet
  facet normal 0 1 0
    outer loop
      vertex 18.125 4 79
      vertex 5.79407 4 40.5823
      vertex 1.95991 4 41.3973
    endloop
  endfacet
  facet normal 0 1 0
    outer loop
      vertex 18.125 4 79
      vertex 1.95991 4 41.3973
      vertex -1.95991 4 41.3973
    endloop
  endfacet
  facet normal 0 1 0
    outer loop
      vertex 18.125 4 79
      vertex -1.95991 4 41.3973
      vertex -5.79407 4 40.5823
    endloop
  endfacet
  facet normal 0 1 0
    outer loop
      vertex 18.125 4 79
      vertex -5.79407 4 40.5823
      vertex -9.375 4 38.988
    endloop
  endfacet
  facet normal 0 1 0
    outer loop
      vertex -17.129 4 30.3763
      vertex -18.125 4 79
      vertex -15.1691 4 33.771
    endloop
  endfacet
  facet normal 0 1 0
    outer loop
      vertex -12.5462 4 36.684
      vertex 18.125 4 79
      vertex -9.375 4 38.988
    endloop
  endfacet
  facet normal 1 0 -0
    outer loop
      vertex 18.125 3.87975 79
      vertex 18.125 3.87975 27.3109
      vertex 18.125 4 27.3109
    endloop
  endfacet
  facet normal 1 0 0
    outer loop
      vertex 18.125 4 79
      vertex 18.125 3.87975 79
      vertex 18.125 4 27.3109
    endloop
  endfacet
  facet normal -0.951056 0 -0.309017
    outer loop
      vertex 18.125 4 27.3109
      vertex 18.125 3.87975 27.3109
      vertex 17.129 4 30.3763
    endloop
  endfacet
  facet normal -0.951056 -0 -0.309017
    outer loop
      vertex 18.3403 1 26.6483
      vertex 18.125 3.87975 27.3109
      vertex 18.3403 3.9177 26.6483
    endloop
  endfacet
  facet normal -0.951056 -1.17864e-16 -0.309017
    outer loop
      vertex 17.129 4 30.3763
      vertex 18.125 3.87975 27.3109
      vertex 18.3403 1 26.6483
    endloop
  endfacet
  facet normal -0.951056 0 -0.309017
    outer loop
      vertex 17.129 4 30.3763
      vertex 18.3403 1 26.6483
      vertex 17.129 1 30.3763
    endloop
  endfacet
  facet normal -0.866025 0 -0.5
    outer loop
      vertex 17.129 4 30.3763
      vertex 17.129 1 30.3763
      vertex 15.1691 4 33.771
    endloop
  endfacet
  facet normal -0.866025 0 -0.5
    outer loop
      vertex 15.1691 4 33.771
      vertex 17.129 1 30.3763
      vertex 15.1691 1 33.771
    endloop
  endfacet
  facet normal -0.743145 0 -0.669131
    outer loop
      vertex 15.1691 4 33.771
      vertex 15.1691 1 33.771
      vertex 12.5462 4 36.684
    endloop
  endfacet
  facet normal -0.743145 0 -0.669131
    outer loop
      vertex 12.5462 4 36.684
      vertex 15.1691 1 33.771
      vertex 12.5462 1 36.684
    endloop
  endfacet
  facet normal -0.587785 0 -0.809017
    outer loop
      vertex 12.5462 4 36.684
      vertex 12.5462 1 36.684
      vertex 9.375 4 38.988
    endloop
  endfacet
  facet normal -0.587785 0 -0.809017
    outer loop
      vertex 9.375 4 38.988
      vertex 12.5462 1 36.684
      vertex 9.375 1 38.988
    endloop
  endfacet
  facet normal -0.406737 0 -0.913545
    outer loop
      vertex 9.375 4 38.988
      vertex 9.375 1 38.988
      vertex 5.79407 4 40.5823
    endloop
  endfacet
  facet normal -0.406737 -2.16371e-15 -0.913545
    outer loop
      vertex 5.79407 4 40.5823
      vertex 9.375 1 38.988
      vertex 5.79407 1 40.5823
    endloop
  endfacet
  facet normal -0.207912 -2.31672e-15 -0.978148
    outer loop
      vertex 5.79407 4 40.5823
      vertex 5.79407 1 40.5823
      vertex 1.95991 4 41.3973
    endloop
  endfacet
  facet normal -0.207912 0 -0.978148
    outer loop
      vertex 1.95991 4 41.3973
      vertex 5.79407 1 40.5823
      vertex 1.95991 1 41.3973
    endloop
  endfacet
  facet normal 0 0 -1
    outer loop
      vertex 1.95991 4 41.3973
      vertex 1.95991 1 41.3973
      vertex -1.95991 4 41.3973
    endloop
  endfacet
  facet normal 0 0 -1
    outer loop
      vertex -1.95991 4 41.3973
      vertex 1.95991 1 41.3973
      vertex -1.95991 1 41.3973
    endloop
  endfacet
  facet normal 0.207912 0 -0.978148
    outer loop
      vertex -1.95991 4 41.3973
      vertex -1.95991 1 41.3973
      vertex -5.79407 4 40.5823
    endloop
  endfacet
  facet normal 0.207912 -2.31672e-15 -0.978148
    outer loop
      vertex -5.79407 4 40.5823
      vertex -1.95991 1 41.3973
      vertex -5.79407 1 40.5823
    endloop
  endfacet
  facet normal 0.406737 -2.16371e-15 -0.913545
    outer loop
      vertex -5.79407 4 40.5823
      vertex -5.79407 1 40.5823
      vertex -9.375 4 38.988
    endloop
  endfacet
  facet normal 0.406737 0 -0.913545
    outer loop
      vertex -9.375 4 38.988
      vertex -5.79407 1 40.5823
      vertex -9.375 1 38.988
    endloop
  endfacet
  facet normal 0.587785 0 -0.809017
    outer loop
      vertex -9.375 4 38.988
      vertex -9.375 1 38.988
      vertex -12.5462 4 36.684
    endloop
  endfacet
  facet normal 0.587785 0 -0.809017
    outer loop
      vertex -12.5462 4 36.684
      vertex -9.375 1 38.988
      vertex -12.5462 1 36.684
    endloop
  endfacet
  facet normal 0.743145 0 -0.669131
    outer loop
      vertex -15.1691 4 33.771
      vertex -12.5462 4 36.684
      vertex -12.5462 1 36.684
    endloop
  endfacet
  facet normal 0.743145 0 -0.669131
    outer loop
      vertex -15.1691 1 33.771
      vertex -15.1691 4 33.771
      vertex -12.5462 1 36.684
    endloop
  endfacet
  facet normal 0.866025 0 -0.5
    outer loop
      vertex -17.129 4 30.3763
      vertex -15.1691 4 33.771
      vertex -15.1691 1 33.771
    endloop
  endfacet
  facet normal 0.866025 0 -0.5
    outer loop
      vertex -17.129 1 30.3763
      vertex -17.129 4 30.3763
      vertex -15.1691 1 33.771
    endloop
  endfacet
  facet normal -1 3.55271e-15 8.02297e-31
    outer loop
      vertex -18.65 1 41.4
      vertex -18.65 2 41.4
      vertex -18.65 1 23.7014
    endloop
  endfacet
  facet normal -1 3.55271e-15 0
    outer loop
      vertex -18.65 1 23.7014
      vertex -18.65 2 41.4
      vertex -18.65 2 23.7014
    endloop
  endfacet
endsolid OpenSCAD_Model
